<?xml version="1.0" encoding="UTF-8"?>
<svg viewBox="0 0 44 44" version="1.1" xmlns="http://www.w3.org/2000/svg" xmlns:xlink="http://www.w3.org/1999/xlink">
    <g id="add_child" stroke="none" stroke-width="1" fill="none" fill-rule="evenodd">
        <path d="M31,21 L31,23 C31,23.5522847 30.5522847,24 30,24 L24,24 L24,30 C24,30.5522847 23.5522847,31 23,31 L20.9975586,31 C20.4452738,31 19.9975586,30.5522847 19.9975586,30 L19.9975586,24 L14,24 C13.4477153,24 13,23.5522847 13,23 L13,21 C13,20.4477153 13.4477153,20 14,20 L19.9975586,20 L19.9975586,14 C19.9975586,13.4477153 20.4452738,13 20.9975586,13 L23,13 C23.5522847,13 24,13.4477153 24,14 L24,20 L30,20 C30.5522847,20 31,20.4477153 31,21 Z" id="" fill="#73C340"></path>
        <path d="M31,20 L31,22 C31,22.5522847 30.5522847,23 30,23 L24,23 L24,29 C24,29.5522847 23.5522847,30 23,30 L20.9975586,30 C20.4452738,30 19.9975586,29.5522847 19.9975586,29 L19.9975586,23 L14,23 C13.4477153,23 13,22.5522847 13,22 L13,20 C13,19.4477153 13.4477153,19 14,19 L19.9975586,19 L19.9975586,13 C19.9975586,12.4477153 20.4452738,12 20.9975586,12 L23,12 C23.5522847,12 24,12.4477153 24,13 L24,19 L30,19 C30.5522847,19 31,19.4477153 31,20 Z" id="" fill="#FFFFFF"></path>
    </g>
</svg>
