<?xml version="1.0" encoding="UTF-8" standalone="no"?>
<!DOCTYPE svg PUBLIC "-//W3C//DTD SVG 1.1//EN" "http://www.w3.org/Graphics/SVG/1.1/DTD/svg11.dtd">
<svg width="100%" height="100%" viewBox="0 0 31 32" version="1.1" xmlns="http://www.w3.org/2000/svg" xmlns:xlink="http://www.w3.org/1999/xlink" xml:space="preserve" xmlns:serif="http://www.serif.com/" style="fill-rule:evenodd;clip-rule:evenodd;stroke-linejoin:round;stroke-miterlimit:2;">
    <g transform="matrix(1,0,0,1,-810,-29)">
        <path id="ai_icon" d="M840.601,34.275C840.601,31.779 838.574,29.752 836.078,29.752L814.731,29.752C812.234,29.752 810.208,31.779 810.208,34.275L810.208,55.622C810.208,58.119 812.234,60.145 814.731,60.145L836.078,60.145C838.574,60.145 840.601,58.119 840.601,55.622L840.601,34.275ZM825.165,51.63L824.464,48.964L819.843,48.964L819.123,51.63L814.9,51.63L819.541,37.348L824.669,37.348L829.368,51.63L825.165,51.63ZM834.505,51.63L830.701,51.63L830.701,37.348L834.505,37.348L834.505,51.63ZM823.667,45.812L823.054,43.477C822.911,42.958 822.737,42.287 822.533,41.463C822.329,40.639 822.194,40.049 822.129,39.692C822.071,40.023 821.956,40.568 821.784,41.327C821.612,42.086 821.231,43.581 820.641,45.812L823.667,45.812Z" style="fill:rgb(57,137,250);"/>
    </g>
</svg>
