<svg xmlns="http://www.w3.org/2000/svg" viewBox="0 0 29.334 31"><defs><style>.a,.b{fill:#0090ff;stroke:rgba(0,0,0,0);stroke-miterlimit:10;}.a{opacity:0.5;}</style></defs><g transform="translate(0.5 0.5)"><path class="a" d="M6551.188-2253a3.258,3.258,0,0,1-3.258-3.26.128.128,0,0,1,0-.026,7.527,7.527,0,0,1-6.164-3.969,1.617,1.617,0,0,1,.664-2.191,1.618,1.618,0,0,1,2.191.663,4.294,4.294,0,0,0,3.794,2.275h2.565c.069,0,.136-.01.206-.01h4.888a3.258,3.258,0,0,1,3.258,3.258,3.258,3.258,0,0,1-3.258,3.26Zm0-11.742a3.256,3.256,0,0,1-3.151-2.445h-2.28a.815.815,0,0,1-.815-.815.814.814,0,0,1,.815-.813h2.28a3.256,3.256,0,0,1,3.151-2.445h4.888a3.258,3.258,0,0,1,3.258,3.258,3.258,3.258,0,0,1-3.258,3.26Zm-16.931,0A3.258,3.258,0,0,1,6531-2268a3.258,3.258,0,0,1,3.258-3.258h4.889A3.258,3.258,0,0,1,6542.4-2268a3.258,3.258,0,0,1-3.257,3.26Zm8.228-9a1.62,1.62,0,0,1-.861-2.122,9.435,9.435,0,0,1,6.782-5.571,3.249,3.249,0,0,1,2.782-1.569h4.888a3.258,3.258,0,0,1,3.258,3.258,3.258,3.258,0,0,1-3.258,3.258h-4.888a3.255,3.255,0,0,1-2.8-1.6,6.2,6.2,0,0,0-3.783,3.482,1.619,1.619,0,0,1-1.491.99A1.609,1.609,0,0,1,6542.485-2273.738Z" transform="translate(-6531 2282.999)"/><path class="b" d="M6551.188-2264.741a3.256,3.256,0,0,1-3.151-2.445h-2.28a.815.815,0,0,1-.815-.815.814.814,0,0,1,.815-.813h2.28a3.256,3.256,0,0,1,3.151-2.445h4.888a3.258,3.258,0,0,1,3.258,3.258,3.258,3.258,0,0,1-3.258,3.26Zm-16.931,0A3.258,3.258,0,0,1,6531-2268a3.258,3.258,0,0,1,3.258-3.258h4.889A3.258,3.258,0,0,1,6542.4-2268a3.258,3.258,0,0,1-3.257,3.26Z" transform="translate(-6531 2282.999)"/></g></svg>
