<svg width="300" height="90" viewBox="0 0 300 90" xmlns="http://www.w3.org/2000/svg">
<path d="M 36.105406,76.064329 5.1962947,87.556135 C 4.2112385,87.922582 3.1052782,87.729237 2.3026198,87.050453 1.499561,86.371707 1.1247461,85.312954 1.3215942,84.280085 2.772243,76.66771 5.3425052,63.177576 5.3425052,63.177576 c 0,0 4.5720938,-23.993965 7.7795358,-40.827817 C 14.951532,12.748234 22.751831,5.4167559 32.44455,4.1888777 40.051674,3.2254775 49.213483,2.0651211 57.371798,1.0317866 69.325697,-0.48225744 80.358379,7.6719442 82.424552,19.548774 L 94.568,89.35631 H 68.345207 c -1.663189,0 -3.080652,-1.207421 -3.345779,-2.84953 -0.432201,-2.677687 -1.012633,-6.27569 -1.012633,-6.27569 l -0.0024,-5.91e-4 -2.221484,-13.853839 c 1.204671,-0.77981 2.366586,-1.62852 3.476915,-2.538635 6.864287,-5.626372 11.41832,-13.398037 14.331324,-21.587478 0.07345,-0.206286 0.145742,-0.41257 0.216946,-0.619469 0.02819,-0.08154 0.05615,-0.163272 0.08394,-0.244709 0.0024,-0.0059 0.191641,-0.682544 0.242177,-1.147092 0.122131,-1.117849 -0.09837,-2.270542 -0.617814,-3.278581 -0.340316,-0.660386 -0.864174,-1.215335 -1.378606,-1.75109 -0.551187,-0.573527 -1.304075,-0.816753 -2.005194,-1.12262 -0.0059,-0.0022 -0.69003,-0.146392 -1.149795,-0.24366 -1.144352,-0.0083 -2.289747,0.108149 -3.277939,0.617372 -1.008041,0.519454 -1.856527,1.329954 -2.405656,2.311064 -0.229459,0.410039 -0.46809,1.075233 -0.46809,1.075233 -1.1095,3.763587 -2.575796,7.407351 -4.592487,10.751899 -3.205492,5.315731 -7.991724,9.745739 -13.767809,11.751372 -3.969038,1.361689 -8.119716,1.575491 -11.771393,0.02051 -4.338774,-1.84714 -7.714047,-4.89586 -10.462695,-8.484901 -0.835145,-1.09092 -1.456312,-2.330045 -2.681445,-2.916543 -0.670219,-0.32029 -1.361508,-0.64347 -2.0952,-0.759137 -1.120346,-0.176429 -2.283768,-0.02394 -3.306579,0.443257 -0.428619,0.196235 -1.01517,0.592539 -1.01517,0.592539 -0.569654,0.510886 -1.208387,0.978144 -1.55108,1.696185 -0.320556,0.670181 -0.643178,1.362123 -0.758864,2.095994 -0.176766,1.120983 -0.02393,2.284749 0.443101,3.308222 0.19487,0.427171 0.59016,1.013241 0.59016,1.013241 4.51297,5.912211 10.568392,10.911814 17.394045,13.28197 z m 7.033602,-50.066247 c 6.946566,0 12.586527,5.642486 12.586527,12.592554 0,6.950106 -5.639961,12.592559 -12.586527,12.592559 -6.946742,0 -12.586269,-5.642453 -12.586269,-12.592559 0,-6.950068 5.639527,-12.592554 12.586269,-12.592554 z" fill="#00C1FF" fill-rule="evenodd"/>
<path d="m 223.72657,21.073312 c 7.69925,0.07836 15.1537,4.371585 19.35256,10.895705 5.09866,7.926674 5.30376,18.788477 0.46029,26.932326 -4.82268,8.107438 -14.67467,13.053168 -24.17751,11.244888 -6.51287,-1.23961 -12.34612,-5.513333 -15.75575,-11.244888 -4.82179,-8.107031 -4.65485,-18.981175 0.46129,-26.932326 4.18188,-6.500003 11.602,-10.816617 19.35126,-10.895705 0.10282,-4.39e-4 0.20498,-4.39e-4 0.30786,0 z M 171.68854,50.756861 151.77408,29.56422 c -2.09031,-2.357686 -1.33921,-6.503794 1.61845,-7.773927 1.63771,-0.703224 3.6624,-0.407131 5.03148,0.746246 0.19224,0.16152 0.23225,0.210265 0.40931,0.387502 l 17.59456,18.723225 17.59437,-18.723225 c 0,0 1.96142,-1.569561 3.80263,-1.519148 0.24979,0.02164 0.31315,0.02147 0.55984,0.06476 2.67073,0.466302 4.60803,3.474902 3.81074,6.156889 -0.16077,0.540824 -0.41613,1.052792 -0.75243,1.505753 -0.14928,0.201443 -0.19535,0.244973 -0.36134,0.432209 l -19.70375,20.967243 v 14.963757 c -0.0473,2.402677 -1.97987,4.59654 -4.38685,4.825226 -2.60784,0.247292 -5.19665,-1.945957 -5.29927,-4.642158 -0.002,-0.06083 -0.002,-0.121976 -0.003,-0.183068 z m 88.93966,5.940983 -5.1027,10.85951 -0.12745,0.25127 c -0.12555,0.216754 -0.15288,0.273883 -0.29701,0.478908 -1.55272,2.203922 -5.11138,2.681554 -7.19085,0.818265 -1.53586,-1.375 -2.0045,-3.714058 -1.15308,-5.672776 6.0798,-12.938517 12.10743,-25.900676 18.23788,-38.815785 1.30735,-2.687213 4.1278,-4.531438 7.19697,-4.572912 0.0765,-4.32e-4 0.0765,-4.32e-4 0.14654,0 3.01255,0.0408 5.90613,1.860411 7.2222,4.62651 l 18.21251,38.762187 c 0.10048,0.229731 0.13178,0.285589 0.21138,0.523257 0.85335,2.555821 -0.84736,5.704993 -3.60075,6.282638 -2.11099,0.442914 -4.39165,-0.73142 -5.379,-2.681562 l -3.16148,-6.730149 z m -137.90936,4.379167 -3.04414,6.480343 c 0,0 -0.88183,1.559735 -2.099,2.211039 -2.30656,1.235225 -5.54945,0.213395 -6.68286,-2.238444 -0.51335,-1.110745 -0.58463,-2.415838 -0.19694,-3.573671 0.0819,-0.237668 0.10975,-0.293526 0.2098,-0.523257 6.07977,-12.939149 12.10236,-25.905501 18.23886,-38.817889 1.30946,-2.688878 4.12649,-4.529334 7.19652,-4.570808 0.0765,-4.32e-4 0.0765,-4.32e-4 0.14584,0 3.01998,0.04122 5.90601,1.855411 7.22324,4.627523 l 18.21233,38.761174 c 1.02848,2.363759 -0.004,5.357472 -2.32313,6.448551 -2.12152,0.997553 -4.92626,0.18453 -6.17658,-1.829195 -0.13245,-0.213205 -0.1561,-0.271578 -0.26869,-0.495023 L 148.15214,56.912086 Z M 223.48587,30.767267 c -7.41295,0.07534 -13.85291,7.105056 -13.75599,15.239493 0.091,7.441709 5.99825,14.789062 13.75599,14.840945 4.43726,0.02968 8.7389,-2.441377 11.24945,-6.151245 4.19937,-6.204395 3.27664,-15.539335 -2.47288,-20.590303 -2.4018,-2.108513 -5.517,-3.349789 -8.77657,-3.33889 z m -95.76666,19.668019 16.14711,-2.644311 -7.45209,-15.86091 z m 137.19393,-2.858753 15.93013,2.608749 -8.57805,-18.255217 z" fill="#ffffff"/>
</svg>
