<?xml version="1.0" encoding="UTF-8" standalone="no"?>
<!DOCTYPE svg PUBLIC "-//W3C//DTD SVG 1.1//EN" "http://www.w3.org/Graphics/SVG/1.1/DTD/svg11.dtd">
<svg width="100%" height="100%" viewBox="0 0 39 27" version="1.1" xmlns="http://www.w3.org/2000/svg" xmlns:xlink="http://www.w3.org/1999/xlink" xml:space="preserve" xmlns:serif="http://www.serif.com/" style="fill-rule:evenodd;clip-rule:evenodd;stroke-linejoin:round;stroke-miterlimit:2;">
    <g transform="matrix(1,0,0,1,-37,-121)">
        <g id="back_icon" transform="matrix(0.193432,0,0,0.369198,-8.63809,-15.6145)">
            <path d="M290.226,413.465C290.226,413.465 305.246,421.335 315.502,426.708C317.983,428.008 319.377,429.771 319.377,431.61C319.377,433.448 317.983,435.211 315.502,436.511C315.425,436.551 315.348,436.591 315.271,436.632C310.105,439.339 301.728,439.339 296.562,436.632C278.144,426.982 238.952,406.448 238.952,406.448C238.952,406.448 278.144,385.915 296.562,376.265C301.728,373.558 310.105,373.558 315.271,376.265C315.348,376.305 315.425,376.346 315.502,376.386C317.983,377.686 319.377,379.449 319.377,381.287C319.377,383.125 317.983,384.888 315.502,386.188C305.246,391.562 290.226,399.431 290.226,399.431L421.054,399.431C424.563,399.431 427.928,400.162 430.409,401.462C432.89,402.761 434.284,404.524 434.284,406.363C434.284,406.42 434.284,406.477 434.284,406.534C434.284,408.372 432.89,410.135 430.409,411.435C427.928,412.735 424.563,413.465 421.054,413.465C385.442,413.465 290.226,413.465 290.226,413.465Z" style="fill:rgb(0,144,255);"/>
        </g>
    </g>
</svg>
