<?xml version="1.0" encoding="UTF-8" standalone="no"?>
<!DOCTYPE svg PUBLIC "-//W3C//DTD SVG 1.1//EN" "http://www.w3.org/Graphics/SVG/1.1/DTD/svg11.dtd">
<svg width="100%" height="100%" viewBox="0 0 51 51" version="1.1" xmlns="http://www.w3.org/2000/svg" xmlns:xlink="http://www.w3.org/1999/xlink" xml:space="preserve" xmlns:serif="http://www.serif.com/" style="fill-rule:evenodd;clip-rule:evenodd;stroke-linejoin:round;stroke-miterlimit:2;">
    <g transform="matrix(1,0,0,1,-5296,-65)">
        <g id="calendar" transform="matrix(0.251536,0,0,0.285081,4016.38,46.7969)">
            <rect x="5089.69" y="65" width="198.778" height="175.389" style="fill:none;"/>
            <g id="Calendar" transform="matrix(3.6134,0,0,3.18823,-3097.72,373.714)">
                <path d="M2318.11,-73.679L2268.6,-73.679L2268.6,-49.566C2268.6,-47.503 2270.27,-45.827 2272.34,-45.827L2314.37,-45.827C2316.43,-45.827 2318.11,-47.503 2318.11,-49.566L2318.11,-73.679ZM2275.85,-53.019L2283.23,-53.019C2284.45,-53.019 2285.43,-54.006 2285.43,-55.221C2285.43,-56.436 2284.45,-57.423 2283.23,-57.423L2275.85,-57.423C2274.63,-57.423 2273.64,-56.436 2273.64,-55.221C2273.64,-54.006 2274.63,-53.019 2275.85,-53.019ZM2289.61,-53.019L2296.99,-53.019C2298.21,-53.019 2299.19,-54.006 2299.19,-55.221C2299.19,-56.436 2298.21,-57.423 2296.99,-57.423L2289.61,-57.423C2288.39,-57.423 2287.4,-56.436 2287.4,-55.221C2287.4,-54.006 2288.39,-53.019 2289.61,-53.019ZM2303.37,-53.019L2310.75,-53.019C2311.97,-53.019 2312.95,-54.006 2312.95,-55.221C2312.95,-56.436 2311.97,-57.423 2310.75,-57.423L2303.37,-57.423C2302.15,-57.423 2301.16,-56.436 2301.16,-55.221C2301.16,-54.006 2302.15,-53.019 2303.37,-53.019ZM2275.85,-62.083L2283.23,-62.083C2284.45,-62.083 2285.43,-63.07 2285.43,-64.285C2285.43,-65.501 2284.45,-66.487 2283.23,-66.487L2275.85,-66.487C2274.63,-66.487 2273.64,-65.501 2273.64,-64.285C2273.64,-63.07 2274.63,-62.083 2275.85,-62.083ZM2289.61,-62.083L2296.99,-62.083C2298.21,-62.083 2299.19,-63.07 2299.19,-64.285C2299.19,-65.501 2298.21,-66.487 2296.99,-66.487L2289.61,-66.487C2288.39,-66.487 2287.4,-65.501 2287.4,-64.285C2287.4,-63.07 2288.39,-62.083 2289.61,-62.083ZM2303.37,-62.083L2310.75,-62.083C2311.97,-62.083 2312.95,-63.07 2312.95,-64.285C2312.95,-65.501 2311.97,-66.487 2310.75,-66.487L2303.37,-66.487C2302.15,-66.487 2301.16,-65.501 2301.16,-64.285C2301.16,-63.07 2302.15,-62.083 2303.37,-62.083Z" style="fill:white;"/>
                <g transform="matrix(1.08016,0,0,1.08016,-48.7955,-116.392)">
                    <path d="M2154.19,26.112L2148.87,26.112C2146.96,26.112 2145.41,27.663 2145.41,29.574L2145.41,34.78L2191.24,34.78L2191.24,29.574C2191.24,27.663 2189.69,26.112 2187.78,26.112L2182.46,26.112L2182.46,23.967C2182.46,22.783 2181.5,21.822 2180.32,21.822L2179.05,21.822C2177.86,21.822 2176.9,22.783 2176.9,23.967L2176.9,26.112L2159.75,26.112L2159.75,23.967C2159.75,22.783 2158.79,21.822 2157.6,21.822L2156.33,21.822C2155.15,21.822 2154.19,22.783 2154.19,23.967L2154.19,26.112Z" style="fill:rgb(255,51,0);"/>
                </g>
            </g>
        </g>
    </g>
</svg>
