<?xml version="1.0" encoding="UTF-8" standalone="no"?>
<!DOCTYPE svg PUBLIC "-//W3C//DTD SVG 1.1//EN" "http://www.w3.org/Graphics/SVG/1.1/DTD/svg11.dtd">
<svg width="100%" height="100%" viewBox="0 0 46 51" version="1.1" xmlns="http://www.w3.org/2000/svg" xmlns:xlink="http://www.w3.org/1999/xlink" xml:space="preserve" xmlns:serif="http://www.serif.com/" style="fill-rule:evenodd;clip-rule:evenodd;stroke-linejoin:round;stroke-miterlimit:2;">
    <g transform="matrix(1,0,0,1,-3333,-93)">
        <g transform="matrix(1,0,0,1,-0.0688862,0)">
            <g id="category_icon" transform="matrix(0.914206,0,0,0.914206,288.017,10.1658)">
                <path d="M3380.64,103.332C3380.64,96.605 3375.18,91.144 3368.45,91.144L3344.08,91.144C3337.35,91.144 3331.89,96.605 3331.89,103.332L3331.89,133.649C3331.89,140.375 3337.35,145.836 3344.08,145.836L3368.45,145.836C3375.18,145.836 3380.64,140.375 3380.64,133.649L3380.64,103.332ZM3375.64,103.804L3375.64,133.649C3375.64,137.616 3372.42,140.836 3368.45,140.836C3368.45,140.836 3344.08,140.836 3344.08,140.836C3340.11,140.836 3336.89,137.616 3336.89,133.649L3336.89,103.804L3375.64,103.804ZM3346.3,129.953C3347.95,129.953 3349.3,131.298 3349.3,132.953C3349.3,134.609 3347.95,135.953 3346.3,135.953C3344.64,135.953 3343.3,134.609 3343.3,132.953C3343.3,131.298 3344.64,129.953 3346.3,129.953ZM3353.36,134.953L3367.44,134.953C3368.55,134.953 3369.44,134.057 3369.44,132.953C3369.44,131.849 3368.55,130.953 3367.44,130.953L3353.36,130.953C3352.26,130.953 3351.36,131.849 3351.36,132.953C3351.36,134.057 3352.26,134.953 3353.36,134.953ZM3346.3,119.382C3347.95,119.382 3349.3,120.726 3349.3,122.382C3349.3,124.038 3347.95,125.382 3346.3,125.382C3344.64,125.382 3343.3,124.038 3343.3,122.382C3343.3,120.726 3344.64,119.382 3346.3,119.382ZM3353.36,124.382L3367.44,124.382C3368.55,124.382 3369.44,123.486 3369.44,122.382C3369.44,121.278 3368.55,120.382 3367.44,120.382L3353.36,120.382C3352.26,120.382 3351.36,121.278 3351.36,122.382C3351.36,123.486 3352.26,124.382 3353.36,124.382ZM3346.09,108.811C3347.74,108.811 3349.09,110.155 3349.09,111.811C3349.09,113.467 3347.74,114.811 3346.09,114.811C3344.43,114.811 3343.09,113.467 3343.09,111.811C3343.09,110.155 3344.43,108.811 3346.09,108.811ZM3353.36,113.811L3367.44,113.811C3368.55,113.811 3369.44,112.915 3369.44,111.811C3369.44,110.707 3368.55,109.811 3367.44,109.811L3353.36,109.811C3352.26,109.811 3351.36,110.707 3351.36,111.811C3351.36,112.915 3352.26,113.811 3353.36,113.811Z" style="fill:rgb(0,145,255);"/>
            </g>
        </g>
    </g>
</svg>
