<svg xmlns="http://www.w3.org/2000/svg" viewBox="0 0 31.427 32.805"><defs><style>.a,.c{fill:#169aff;}.b{fill:#9acdf7;}.b,.c{fill-rule:evenodd;}</style></defs><path class="a" d="M3.849,13.181c0,.151.195,8.192.123,8.726a1.412,1.412,0,0,0,1.352,1.506,1.28,1.28,0,0,0,1.259-1.307L6.41,24.03a1.26,1.26,0,1,0,2.519,0l.116-2.274a1.26,1.26,0,1,0,2.519,0l.088-2.516c0,.725.276,1.265.972,1.265a1.244,1.244,0,0,0,1.195-1.323q-.135-7.274-.191-11.469A6.166,6.166,0,0,0,11.71,3.7L11.67,0,3.745,3.133l.09,3.119A5.724,5.724,0,0,0,1.2,9.458C.769,11.008.417,14.693.1,15.675c-.575,1.788,1.434,2.569,2.305,1.128A24.83,24.83,0,0,0,3.849,13.181Z" transform="translate(21.936 32.805) rotate(-158)"/><path class="b" d="M13.437,11.773A40.218,40.218,0,0,0,.459,13.429q9.074-.694,12.412-.1Z" transform="translate(-0.231 2.313)"/><path class="c" d="M0,0C2.417,2.3,5.461,2.245,7.62,0a5.306,5.306,0,0,0,0,7.62A5.41,5.41,0,0,0,0,7.62,5.243,5.243,0,0,0,0,0Z" transform="translate(12.25 0) rotate(45)"/><path class="c" d="M0,0A3.121,3.121,0,0,0,4.656,0a3.243,3.243,0,0,0,0,4.656A3.306,3.306,0,0,0,0,4.656,3.2,3.2,0,0,0,0,0Z" transform="translate(5.216 5.538) rotate(45)"/><path class="b" d="M11.721,16.1l-.512,1.344q-5.4-.923-10.94-1.51A43.762,43.762,0,0,1,11.721,16.1Z" transform="translate(-0.269 3.084)"/></svg>
