<?xml version="1.0" encoding="UTF-8"?>
<svg width="24px" height="24px" viewBox="0 0 24 24" version="1.1" xmlns="http://www.w3.org/2000/svg" xmlns:xlink="http://www.w3.org/1999/xlink">
    <g id="radial---down-level" fill-rule="evenodd">
        <g id="Group-Copy" transform="translate(4.000000, 3.400000)" fill="#169AFF">
            <path d="M5,8.35481206 L5,9.81897182 C3.76845223,10.3919135 2.97071589,11.308759 2.97071589,12.3420554 C2.97071589,14.0780534 5.22240308,15.4853579 8,15.4853579 C10.7775969,15.4853579 13.0292841,14.0780534 13.0292841,12.3420554 C13.0292841,11.308759 12.2315478,10.3919135 11,9.81897182 L11,8.35481206 C13.6737519,9.12820201 15.5439262,10.9038581 15.5439262,12.9707159 C15.5439262,15.7483128 12.1663954,18 8,18 C3.83360462,18 0.456073832,15.7483128 0.456073832,12.9707159 C0.456073832,10.9038581 2.32624808,9.12820201 5,8.35481206 Z M8,12.9707159 C6.95840116,12.9707159 6.11401846,12.4077941 6.11401846,11.7133949 C6.11401846,11.0189956 6.95840116,10.4560738 8,10.4560738 C9.04159884,10.4560738 9.88598154,11.0189956 9.88598154,11.7133949 C9.88598154,12.4077941 9.04159884,12.9707159 8,12.9707159 Z" id="Combined-Shape"></path>
            <path d="M12.0753134,5.3926742 C12.1885637,5.30518048 12.2876563,5.17394187 12.372594,4.99895443 C12.4575318,4.823967 12.5,4.65991873 12.5,4.50680473 C12.5,4.35369072 12.4610708,4.19693349 12.3832112,4.03652834 C12.3053516,3.87612319 12.2097981,3.74488458 12.0965477,3.64280857 L11.6718611,3.22721548 C11.2330161,2.80432917 8.99799849,0.90830271 8.78565413,0.762479845 L8.57331083,0.609366602 C8.40343534,0.536455169 8.25125749,0.5 8.11677273,0.5 C7.98228797,0.5 7.84780523,0.540100686 7.71332046,0.620303262 C7.5788357,0.700505838 7.47266511,0.809871347 7.39480552,0.948403068 C7.31694592,1.08693479 7.2780167,1.22910995 7.2780167,1.37493282 L7.2780167,3.09578451 L4.86051702,3.14247261 C4.10491182,3.15706528 3.5,3.7737723 3.5,4.52951839 L3.5,4.52951839 C3.5,5.28644672 4.10365683,5.90525726 4.86035258,5.92402015 L7.2780167,5.9839681 L7.2780167,7.61680331 C7.2780167,7.9521959 7.4231165,8.20373657 7.71332046,8.37143287 C8.00352442,8.53912916 8.29018501,8.54277468 8.57331083,8.38236953 L8.7644198,8.25112961 C8.96260787,8.11988903 11.1763912,6.26760921 11.6293925,5.83014061 C12.0823938,5.39267202 11.9337505,5.53849707 12.0753134,5.3926742 Z" id="-copy-5" transform="translate(8.000000, 4.500000) rotate(90.000000) translate(-8.000000, -4.500000) "></path>
        </g>
    </g>
</svg>