<?xml version="1.0" encoding="UTF-8"?>
<svg width="30px" height="30px" viewBox="0 0 30 30" version="1.1" xmlns="http://www.w3.org/2000/svg" xmlns:xlink="http://www.w3.org/1999/xlink">
    <!-- Generator: Sketch 50.2 (55047) - http://www.bohemiancoding.com/sketch -->
    <title>dt-new-chat</title>
    <desc>Created with Sketch.</desc>
    <defs></defs>
    <g id="dt-new-chat" stroke="none" stroke-width="1" fill="none" fill-rule="evenodd">
        <path d="M15.0105914,5 C17.1853595,5 19.2047568,5.42559579 21.0688438,6.27680013 C22.8764433,7.10054627 24.3097917,8.21258688 25.368932,9.61295532 C26.4563161,11.0682402 27,12.6401988 27,14.3288784 C27,16.017558 26.4563161,17.5895166 25.368932,19.0448015 C24.3097917,20.458899 22.8764433,21.5778041 21.0688438,22.4015502 C19.2047568,23.2527546 16.5639972,23.6783503 15.0105914,23.6783503 C14.3938111,23.6783503 13.0927606,23.7728933 11.1708984,23.3531975 C8.63599694,24.4510658 6.19480014,25 3.84730803,25 C5.14385714,22.0137192 5.60420149,20.2671277 5.22834109,19.7602255 C4.66455048,18.9998723 4.20978371,18.4933833 3.84730803,17.7885949 C3.28243319,16.6902667 3,15.5370394 3,14.3288784 C3,12.6401988 3.54368388,11.0682402 4.63106796,9.61295532 C5.70433017,8.21258688 7.14473942,7.10054627 8.95233892,6.27680013 C10.8164259,5.42559579 12.8358232,5 15.0105914,5 Z M19,13.0057143 L16.1428571,13.0057143 L16.1428571,10 L13.9942857,10 L13.9942857,13.0057143 L11,13.0057143 L11,15.1428571 L13.9942857,15.1428571 L13.9942857,18 L16.1428571,18 L16.1428571,15.1428571 L19,15.1428571 L19,13.0057143 Z" id="Combined-Shape" fill="#0090FF"></path>
    </g>
</svg>