<?xml version="1.0" encoding="utf-8"?>
<!-- Generator: Adobe Illustrator 15.1.0, SVG Export Plug-In . SVG Version: 6.00 Build 0)  -->
<!DOCTYPE svg PUBLIC "-//W3C//DTD SVG 1.1//EN" "http://www.w3.org/Graphics/SVG/1.1/DTD/svg11.dtd">
<svg version="1.1" id="Layer_1" xmlns="http://www.w3.org/2000/svg" xmlns:xlink="http://www.w3.org/1999/xlink" x="0px" y="0px"
	 width="12px" height="12px" viewBox="6 6 12 12" enable-background="new 6 6 12 12" xml:space="preserve">
<g>
	<path fill="#060E5A" d="M12.008,14.699c-1.491,0-2.7-1.209-2.7-2.699h1.184L8.324,9.817L6.158,12h1.125c0,2.609,2.115,4.725,4.725,4.725
		c1.088,0,2.077-0.381,2.876-0.998l-1.513-1.408C12.97,14.555,12.508,14.699,12.008,14.699z"/>
	<path fill="#060E5A" d="M16.717,12c0-2.61-2.115-4.725-4.725-4.725c-1.088,0-2.077,0.382-2.876,0.999l1.513,1.408
		C11.03,9.446,11.492,9.3,11.992,9.3c1.491,0,2.7,1.209,2.7,2.7h-1.184l2.167,2.184L17.842,12H16.717z"/>
</g>
</svg>
