<svg xmlns="http://www.w3.org/2000/svg" viewBox="0 0 30 28.086"><defs><style>.a{fill:#0090ff;}</style></defs><path class="a" d="M650.331,391.6a1.928,1.928,0,0,1-1.412.6H625a2.043,2.043,0,0,1-2.01-2.009V366.119a2.044,2.044,0,0,1,2.01-2.01h7.991a1.856,1.856,0,0,1,1.388.6,1.972,1.972,0,0,1,.574,1.411v.143a1.971,1.971,0,0,1-.574,1.412,1.852,1.852,0,0,1-1.388.6h-5.981v19.9h19.9v-4.115a2.01,2.01,0,0,1,4.019,0v6.125A1.93,1.93,0,0,1,650.331,391.6Zm-1.412-17.679-9.138,9.043-5.646-5.5,9.139-9.139-3.923-3.971,13.636-.1-.1,13.685Z" transform="translate(-622.986 -364.109)"/></svg>
