<?xml version="1.0" encoding="UTF-8" standalone="no"?>
<!DOCTYPE svg PUBLIC "-//W3C//DTD SVG 1.1//EN" "http://www.w3.org/Graphics/SVG/1.1/DTD/svg11.dtd">
<svg width="100%" height="100%" viewBox="0 0 51 51" version="1.1" xmlns="http://www.w3.org/2000/svg" xmlns:xlink="http://www.w3.org/1999/xlink" xml:space="preserve" xmlns:serif="http://www.serif.com/" style="fill-rule:evenodd;clip-rule:evenodd;stroke-linejoin:round;stroke-miterlimit:2;">
    <g transform="matrix(1,0,0,1,-5476,-65)">
        <g id="groups" transform="matrix(0.251536,0,0,0.285081,4196.38,46.7969)">
            <rect x="5089.69" y="65" width="198.778" height="175.389" style="fill:none;"/>
            <g id="Group" transform="matrix(3.91272,0,0,3.45233,-8773.41,-1241.23)">
                <g id="Groups" transform="matrix(0.923279,0,0,0.923279,273.784,30.8997)">
                    <g transform="matrix(1.10049,0,0,1.10049,-2486.01,304.444)">
                        <path d="M5511.61,90.617C5512.69,90.212 5513.9,89.986 5515.16,89.986C5519.91,89.986 5523.77,93.167 5523.77,97.085C5523.77,99.012 5520.57,98.843 5516.42,98.797C5516.03,95.611 5514.27,92.714 5511.61,90.617ZM5486.64,98.798C5482.58,98.838 5479.48,98.936 5479.48,97.085C5479.48,93.167 5483.33,89.986 5488.08,89.986C5489.3,89.986 5490.46,90.195 5491.51,90.571C5488.82,92.671 5487.03,95.588 5486.64,98.798ZM5515.16,79.843C5517.35,79.843 5519.12,81.617 5519.12,83.803C5519.12,85.989 5517.35,87.763 5515.16,87.763C5512.98,87.763 5511.2,85.989 5511.2,83.803C5511.2,81.617 5512.98,79.843 5515.16,79.843ZM5488.08,79.843C5490.27,79.843 5492.04,81.617 5492.04,83.803C5492.04,85.989 5490.27,87.763 5488.08,87.763C5485.9,87.763 5484.12,85.989 5484.12,83.803C5484.12,81.617 5485.9,79.843 5488.08,79.843Z" style="fill:white;"/>
                    </g>
                    <g transform="matrix(1.27916,6.30672e-32,0,1.27916,-1314.56,-342.237)">
                        <path d="M3817.31,583.19C3823,583.19 3827.61,586.997 3827.61,591.686C3827.61,594.22 3823,593.725 3817.31,593.725C3811.63,593.725 3807.01,594.156 3807.01,591.686C3807.01,586.997 3811.63,583.19 3817.31,583.19ZM3817.31,571.053C3819.93,571.053 3822.05,573.176 3822.05,575.792C3822.05,578.407 3819.93,580.531 3817.31,580.531C3814.7,580.531 3812.57,578.407 3812.57,575.792C3812.57,573.176 3814.7,571.053 3817.31,571.053Z" style="fill:rgb(255,123,0);"/>
                    </g>
                </g>
                <g transform="matrix(1,0,0,1,0.444445,0.845062)">
                    <path d="M3553.7,385.384C3557.78,381.97 3562.96,380.058 3568.37,380.058C3575.11,380.058 3581.51,383.037 3585.86,388.198L3584.2,389.592C3580.27,384.92 3574.47,382.223 3568.37,382.223C3563.54,382.223 3558.91,383.908 3555.24,386.921L3557.66,389.345L3550.04,390.595L3551.29,382.976L3553.7,385.384Z" style="fill:white;"/>
                </g>
                <g transform="matrix(-1,1.22465e-16,-1.22465e-16,-1,7136.34,806.684)">
                    <path d="M3553.7,385.384C3557.78,381.97 3562.96,380.058 3568.37,380.058C3575.11,380.058 3581.51,383.037 3585.86,388.198L3584.2,389.592C3580.27,384.92 3574.47,382.223 3568.37,382.223C3563.54,382.223 3558.91,383.908 3555.24,386.921L3557.66,389.345L3550.04,390.595L3551.29,382.976L3553.7,385.384Z" style="fill:white;"/>
                </g>
            </g>
        </g>
    </g>
</svg>
