<?xml version="1.0" encoding="UTF-8" standalone="no"?>
<!DOCTYPE svg PUBLIC "-//W3C//DTD SVG 1.1//EN" "http://www.w3.org/Graphics/SVG/1.1/DTD/svg11.dtd">
<svg width="100%" height="100%" viewBox="0 0 51 51" version="1.1" xmlns="http://www.w3.org/2000/svg" xmlns:xlink="http://www.w3.org/1999/xlink" xml:space="preserve" xmlns:serif="http://www.serif.com/" style="fill-rule:evenodd;clip-rule:evenodd;stroke-linejoin:round;stroke-miterlimit:2;">
    <g transform="matrix(1,0,0,1,-5116,-65)">
        <g id="home" transform="matrix(0.251536,0,0,0.285081,3836.38,46.7969)">
            <rect x="5089.69" y="65" width="198.778" height="175.389" style="fill:none;"/>
            <g id="House" transform="matrix(1.02045,0,0,0.895674,4464.24,376.989)">
                <g transform="matrix(1,0,0,1,0,3.83913)">
                    <path d="M690.586,-186.379L690.586,-219.23C690.586,-224.704 695.007,-229.148 700.452,-229.148L720.184,-229.148C725.629,-229.148 730.05,-224.704 730.05,-219.23L730.05,-186.498L758.453,-186.584C763.854,-186.6 768.224,-191.006 768.224,-196.436C768.224,-206.226 768.224,-220.744 768.224,-227.482C768.224,-229.817 767.201,-232.034 765.427,-233.542C756.289,-241.31 727.224,-266.018 715.375,-276.09C712.431,-278.593 708.118,-278.591 705.175,-276.086C693.342,-266.011 664.326,-241.308 655.204,-233.542C653.433,-232.034 652.411,-229.819 652.411,-227.485C652.411,-220.705 652.411,-206.028 652.411,-196.145C652.411,-193.527 653.448,-191.017 655.292,-189.169C657.137,-187.32 659.637,-186.286 662.241,-186.294L690.586,-186.379Z" style="fill:white;"/>
                </g>
                <g id="Roof">
                    <g transform="matrix(6.26197e-16,-1.57101,2.72159,5.36375e-16,660.677,3243.63)">
                        <path d="M2263.38,32.694C2263.38,31.535 2261.74,30.594 2259.72,30.594L2236.77,30.594C2234.75,30.594 2233.11,31.535 2233.11,32.694L2233.11,36.895C2233.11,38.054 2234.75,38.995 2236.77,38.995L2259.72,38.995C2261.74,38.995 2263.38,38.054 2263.38,36.895L2263.38,32.694Z" style="fill:rgb(0,152,255);"/>
                    </g>
                    <g transform="matrix(2.84199,0,0,2.85692,-5718.38,-376.412)">
                        <path d="M2262.05,20.311C2262.51,20.311 2262.97,20.467 2263.35,20.787L2292.18,45.18C2293.02,45.895 2293.12,47.159 2292.41,48L2289.8,51.048C2289.08,51.889 2287.81,51.991 2286.97,51.276C2286.97,51.276 2269.24,36.274 2263.68,31.574C2262.74,30.772 2261.35,30.772 2260.4,31.574C2254.85,36.274 2237.12,51.276 2237.12,51.276C2236.27,51.991 2235,51.889 2234.28,51.048L2231.68,48C2230.96,47.159 2231.06,45.895 2231.9,45.18L2260.73,20.787C2261.11,20.467 2261.57,20.311 2262.03,20.311L2262.05,20.311Z" style="fill:rgb(0,152,255);"/>
                    </g>
                </g>
            </g>
        </g>
    </g>
</svg>
