<svg width="100%" height="100%" viewBox="0 0 45 45" version="1.1" xmlns="http://www.w3.org/2000/svg" xml:space="preserve" style="fill-rule:evenodd;clip-rule:evenodd;stroke-linejoin:round;stroke-miterlimit:2;fill:rgb(0,144,255);">
    <g transform="matrix(1,0,0,1,-2372,-4521)">
        <g transform="matrix(0.971143,0,0,1.74984,1220.25,-3618.34)">
            <g transform="matrix(1.02971,0,0,0.57148,-1256.51,2067.81)">
                <g id="Bulb">
                    <path d="M2398.53,4561.59L2390.12,4561.59L2390.12,4561.78C2390.12,4563.22 2391.29,4564.39 2392.73,4564.39C2393.74,4564.39 2394.9,4564.39 2395.92,4564.39C2397.36,4564.39 2398.53,4563.22 2398.53,4561.78C2398.53,4561.66 2398.53,4561.59 2398.53,4561.59ZM2399.93,4557.96C2399.93,4557.64 2399.67,4557.38 2399.35,4557.38C2397.41,4557.38 2391.23,4557.38 2389.3,4557.38C2388.98,4557.38 2388.72,4557.64 2388.72,4557.96C2388.72,4558.44 2388.72,4559.12 2388.72,4559.6C2388.72,4559.92 2388.98,4560.18 2389.3,4560.18C2391.23,4560.18 2397.41,4560.18 2399.35,4560.18C2399.67,4560.18 2399.93,4559.92 2399.93,4559.6C2399.93,4559.12 2399.93,4558.44 2399.93,4557.96ZM2404.26,4526.45C2401.62,4523.81 2398.1,4522.36 2394.32,4522.36C2394.31,4522.36 2394.3,4522.36 2394.29,4522.36C2386.62,4522.36 2380.32,4528.67 2380.32,4536.34C2380.32,4536.35 2380.32,4536.36 2380.32,4536.37C2380.32,4540.45 2381.88,4544.27 2384.61,4546.84L2384.99,4547.2C2386.56,4548.68 2388.72,4550.7 2388.72,4552.48L2388.72,4555.33C2388.72,4555.69 2389.01,4555.98 2389.38,4555.98C2390.56,4555.98 2392.92,4555.98 2392.92,4555.98L2392.92,4544.52L2389.05,4542.32L2390.65,4540.02L2394.32,4541.97L2397.94,4540.01L2399.61,4542.26L2395.72,4544.54L2395.72,4555.98L2399.27,4555.98C2399.63,4555.98 2399.93,4555.69 2399.93,4555.33C2399.93,4554.31 2399.93,4552.48 2399.93,4552.48C2399.93,4550.74 2402.06,4548.72 2403.62,4547.25L2404.05,4546.84C2406.85,4544.16 2408.33,4540.54 2408.33,4536.37C2408.35,4532.65 2406.88,4529.08 2404.26,4526.45Z" />
                </g>
            </g>
        </g>
    </g>
</svg>
