<svg width="100%" height="100%" viewBox="0 0 45 45" version="1.1" xmlns="http://www.w3.org/2000/svg" xmlns:xlink="http://www.w3.org/1999/xlink" xml:space="preserve" style="fill-rule:evenodd;clip-rule:evenodd;stroke-linejoin:round;stroke-miterlimit:2;">
    <g transform="matrix(1,0,0,1,-11570,-12609)">
        <g transform="matrix(1.10927,0,0,1.10927,11014.1,12469.9)">
            <g id="indent_icon" transform="matrix(0.901494,0,0,0.901494,-9929.15,-11241.5)">
                <path d="M11596.6,12649L11614.8,12649L11614.8,12645.5L11596.6,12645.5L11596.6,12649ZM11587,12639.6L11572.5,12648.8L11572.5,12630.4L11587,12639.6ZM11589.3,12629.5L11589.3,12649L11593.1,12649L11593.1,12629.5L11589.3,12629.5ZM11596.6,12641L11614.8,12641L11614.8,12637.5L11596.6,12637.5L11596.6,12641ZM11596.6,12633L11614.8,12633L11614.8,12629.5L11596.6,12629.5L11596.6,12633ZM11570.8,12625L11614.8,12625L11614.8,12621.5L11570.8,12621.5L11570.8,12625ZM11570.8,12617L11614.8,12617L11614.8,12613.5L11570.8,12613.5L11570.8,12617Z" style="fill:rgb(0,144,255);"/>
            </g>
        </g>
    </g>
</svg>
