<?xml version="1.0" encoding="UTF-8" standalone="no"?>
<!DOCTYPE svg PUBLIC "-//W3C//DTD SVG 1.1//EN" "http://www.w3.org/Graphics/SVG/1.1/DTD/svg11.dtd">
<svg width="100%" height="100%" viewBox="0 0 51 51" version="1.1" xmlns="http://www.w3.org/2000/svg" xmlns:xlink="http://www.w3.org/1999/xlink" xml:space="preserve" xmlns:serif="http://www.serif.com/" style="fill-rule:evenodd;clip-rule:evenodd;stroke-linejoin:round;stroke-miterlimit:2;">
    <g transform="matrix(1,0,0,1,-5116,-138)">
        <g id="integrations" transform="matrix(0.251536,0,0,0.285081,3836.38,119.798)">
            <rect x="5089.69" y="65" width="198.778" height="175.389" style="fill:none;"/>
            <g id="integrations1" serif:id="integrations" transform="matrix(1.70304,0,0,1.50265,-1012.9,-1626.67)">
                <g transform="matrix(2.66315,0,0,2.66315,-10051.1,743.845)">
                    <path d="M5133.71,165.897C5133.18,165.461 5132.82,164.82 5132.75,164.087C5132.74,164.015 5132.74,163.942 5132.74,163.884C5132.69,163.165 5132.94,162.457 5133.43,161.925C5133.43,161.924 5133.43,161.924 5133.44,161.924C5133.92,161.399 5134.21,160.698 5134.21,159.929C5134.21,158.303 5132.89,156.983 5131.27,156.983C5129.64,156.983 5128.32,158.303 5128.32,159.929C5128.32,160.695 5128.62,161.394 5129.1,161.913C5129.1,161.916 5129.11,161.918 5129.11,161.92C5129.61,162.471 5129.86,163.21 5129.8,163.956L5129.78,164.087C5129.72,164.82 5129.36,165.461 5128.82,165.897C5128.59,166.19 5128.28,166.431 5127.94,166.599C5127.79,166.677 5127.61,166.717 5127.44,166.717C5127.44,166.717 5122.45,166.717 5122.45,166.717C5122.3,166.717 5122.16,166.707 5122.02,166.686C5121.93,166.791 5121.87,166.928 5121.87,167.071C5121.87,170.692 5121.87,179.149 5121.87,183.487C5121.87,183.893 5122.03,184.283 5122.32,184.57C5122.61,184.857 5123,185.018 5123.4,185.018C5127.8,185.018 5136.43,185.018 5140.09,185.018C5140.24,185.018 5140.39,184.958 5140.5,184.85C5140.51,184.834 5140.53,184.816 5140.54,184.798C5140.53,184.682 5140.52,184.564 5140.52,184.445L5140.52,179.755L5140.35,179.737C5140.24,179.728 5140.14,179.763 5140.06,179.834C5139.14,180.697 5137.89,181.221 5136.53,181.221C5133.71,181.221 5130.73,179.475 5130.73,175.622C5130.73,173.914 5131.25,172.692 5132.01,171.827C5133.13,170.54 5134.85,170.024 5136.53,170.024C5137.89,170.024 5139.14,170.548 5140.07,171.405C5140.14,171.475 5140.24,171.51 5140.35,171.5L5140.52,171.497C5140.51,171.496 5140.49,171.494 5140.48,171.495L5140.52,171.49L5140.52,166.8C5140.52,166.764 5140.52,166.728 5140.52,166.693L5140.47,166.642C5140.26,166.692 5140.04,166.717 5139.82,166.717L5135.1,166.717C5134.92,166.717 5134.75,166.677 5134.59,166.599C5134.25,166.431 5133.95,166.19 5133.71,165.897Z" style="fill:rgb(255,201,0);"/>
                </g>
                <g transform="matrix(2.66315,0,0,2.66315,-10051.1,743.845)">
                    <path d="M5161.17,163.981C5161.27,163.876 5161.32,163.738 5161.32,163.596C5161.32,159.975 5161.32,151.517 5161.32,147.179C5161.32,146.773 5161.16,146.384 5160.87,146.097C5160.58,145.81 5160.19,145.648 5159.79,145.648C5155.39,145.648 5146.77,145.648 5143.1,145.648C5142.95,145.648 5142.8,145.709 5142.69,145.816C5142.68,145.833 5142.66,145.85 5142.65,145.868C5142.66,145.985 5142.67,146.103 5142.67,146.222L5142.67,150.912L5142.84,150.929C5142.95,150.939 5143.05,150.904 5143.13,150.832C5144.05,149.97 5145.3,149.446 5146.66,149.446C5149.48,149.446 5152.46,151.191 5152.46,155.044C5152.46,156.752 5151.94,157.974 5151.19,158.84C5150.06,160.127 5148.34,160.643 5146.66,160.643C5145.3,160.643 5144.05,160.119 5143.12,159.262C5143.05,159.191 5142.94,159.157 5142.84,159.166L5142.67,159.169C5142.68,159.171 5142.7,159.172 5142.71,159.171L5142.67,159.177L5142.67,163.867C5142.67,163.902 5142.67,163.938 5142.67,163.974L5142.72,164.025C5142.93,163.975 5143.15,163.949 5143.37,163.949L5148.09,163.949C5148.27,163.949 5148.44,163.99 5148.6,164.067C5148.94,164.236 5149.24,164.476 5149.48,164.77C5150.01,165.206 5150.37,165.846 5150.44,166.579C5150.44,166.652 5150.45,166.724 5150.45,166.782C5150.49,167.501 5150.25,168.21 5149.76,168.742C5149.76,168.742 5149.76,168.742 5149.76,168.743C5149.27,169.268 5148.98,169.968 5148.98,170.738C5148.98,172.363 5150.3,173.683 5151.92,173.683C5153.55,173.683 5154.87,172.363 5154.87,170.738C5154.87,169.971 5154.57,169.273 5154.09,168.753C5154.09,168.751 5154.09,168.749 5154.08,168.746C5153.58,168.195 5153.33,167.456 5153.39,166.711L5153.4,166.579C5153.47,165.846 5153.83,165.206 5154.37,164.77C5154.61,164.476 5154.9,164.236 5155.25,164.067C5155.4,163.99 5155.58,163.949 5155.75,163.949C5155.75,163.949 5160.74,163.949 5160.74,163.949C5160.89,163.949 5161.03,163.96 5161.17,163.981Z" style="fill:white;"/>
                </g>
                <g transform="matrix(2.66315,0,0,2.66315,-10051.1,743.845)">
                    <path d="M5140.27,145.868C5140.26,145.85 5140.24,145.833 5140.23,145.816C5140.12,145.709 5139.97,145.648 5139.82,145.648C5136.2,145.648 5127.74,145.648 5123.4,145.648C5123,145.648 5122.61,145.81 5122.32,146.097C5122.03,146.384 5121.87,146.773 5121.87,147.179C5121.87,151.572 5121.87,160.201 5121.87,163.867C5121.87,164.009 5121.93,164.147 5122.02,164.252C5122.16,164.231 5122.3,164.22 5122.45,164.22L5127.15,164.22L5127.15,164.125C5127.16,164.02 5127.13,163.916 5127.06,163.838C5126.19,162.912 5125.67,161.669 5125.67,160.305C5125.67,157.488 5127.41,154.51 5131.27,154.51C5132.98,154.51 5134.2,155.025 5135.06,155.781C5136.35,156.907 5136.87,158.629 5136.87,160.305C5136.87,161.67 5136.34,162.913 5135.49,163.842C5135.42,163.919 5135.38,164.021 5135.39,164.124C5135.39,164.156 5135.4,164.188 5135.4,164.22L5140.09,164.22C5140.15,164.22 5140.21,164.222 5140.27,164.225L5140.31,164.168C5140.27,163.981 5140.25,163.79 5140.25,163.596L5140.25,158.874C5140.25,158.699 5140.29,158.526 5140.37,158.369C5140.49,158.125 5140.65,157.901 5140.83,157.706C5141.26,157.056 5141.97,156.603 5142.8,156.528C5142.88,156.521 5142.95,156.517 5143.01,156.517C5143.73,156.471 5144.43,156.72 5144.97,157.21C5144.97,157.21 5144.97,157.21 5144.97,157.21C5145.49,157.694 5146.19,157.99 5146.96,157.99C5148.59,157.99 5149.91,156.67 5149.91,155.044C5149.91,153.418 5148.59,152.099 5146.96,152.099C5146.19,152.099 5145.5,152.392 5144.98,152.878C5144.98,152.88 5144.97,152.882 5144.97,152.884C5144.42,153.39 5143.68,153.641 5142.94,153.573L5142.8,153.561C5141.97,153.485 5141.26,153.033 5140.83,152.382C5140.65,152.187 5140.49,151.964 5140.37,151.72C5140.29,151.563 5140.25,151.39 5140.25,151.215C5140.25,151.215 5140.25,146.222 5140.25,146.222C5140.25,146.103 5140.26,145.985 5140.27,145.868Z" style="fill:white;"/>
                </g>
                <g transform="matrix(2.66315,0,0,2.66315,-10051.1,743.845)">
                    <path d="M5161.17,166.415C5161.03,166.436 5160.89,166.446 5160.74,166.446L5156.05,166.446L5156.04,166.541C5156.03,166.646 5156.06,166.75 5156.13,166.828C5157,167.754 5157.52,168.997 5157.52,170.361C5157.52,173.178 5155.78,176.157 5151.92,176.157C5150.21,176.157 5148.99,175.642 5148.13,174.885C5146.84,173.76 5146.32,172.037 5146.32,170.361C5146.32,168.997 5146.85,167.754 5147.7,166.824C5147.78,166.748 5147.81,166.645 5147.8,166.542C5147.8,166.51 5147.8,166.478 5147.8,166.446L5143.1,166.446C5143.04,166.446 5142.98,166.445 5142.92,166.441L5142.88,166.498C5142.92,166.685 5142.94,166.877 5142.94,167.071L5142.94,171.793C5142.94,171.968 5142.9,172.141 5142.82,172.298C5142.7,172.542 5142.55,172.765 5142.36,172.96C5141.93,173.611 5141.22,174.063 5140.39,174.139C5140.31,174.145 5140.24,174.15 5140.18,174.149C5139.47,174.196 5138.76,173.946 5138.23,173.457C5138.22,173.457 5138.22,173.456 5138.22,173.456C5137.7,172.972 5137,172.677 5136.23,172.677C5134.6,172.677 5133.28,173.997 5133.28,175.622C5133.28,177.248 5134.6,178.568 5136.23,178.568C5136.99,178.568 5137.69,178.274 5138.21,177.789C5138.22,177.787 5138.22,177.785 5138.22,177.783C5138.77,177.276 5139.51,177.026 5140.26,177.094L5140.39,177.106C5141.22,177.182 5141.93,177.634 5142.36,178.285C5142.55,178.479 5142.7,178.703 5142.82,178.947C5142.9,179.104 5142.94,179.277 5142.94,179.452C5142.94,179.452 5142.94,184.445 5142.94,184.445C5142.94,184.564 5142.93,184.682 5142.92,184.798C5142.93,184.816 5142.95,184.834 5142.97,184.85C5143.07,184.958 5143.22,185.018 5143.37,185.018C5146.99,185.018 5155.45,185.018 5159.79,185.018C5160.19,185.018 5160.58,184.857 5160.87,184.57C5161.16,184.283 5161.32,183.893 5161.32,183.487C5161.32,179.095 5161.32,170.465 5161.32,166.8C5161.32,166.657 5161.27,166.52 5161.17,166.415Z" style="fill:white;"/>
                </g>
            </g>
        </g>
    </g>
</svg>
