<?xml version="1.0" encoding="UTF-8" standalone="no"?>
<!DOCTYPE svg PUBLIC "-//W3C//DTD SVG 1.1//EN" "http://www.w3.org/Graphics/SVG/1.1/DTD/svg11.dtd">
<svg width="100%" height="100%" viewBox="0 0 51 51" version="1.1" xmlns="http://www.w3.org/2000/svg" xmlns:xlink="http://www.w3.org/1999/xlink" xml:space="preserve" xmlns:serif="http://www.serif.com/" style="fill-rule:evenodd;clip-rule:evenodd;stroke-linejoin:round;stroke-miterlimit:2;">
    <g transform="matrix(1,0,0,1,-5296,-138)">
        <g id="notifications" transform="matrix(0.251536,0,0,0.285081,4016.38,119.798)">
            <rect x="5089.69" y="65" width="198.778" height="175.389" style="fill:none;"/>
            <g id="Megaphone" transform="matrix(1.22859,0,0,1.08403,3044.33,-91.0802)">
                <g transform="matrix(5.63479e-17,-0.920231,0.811845,4.97112e-17,1599.73,1771.26)">
                    <path d="M1651.92,163.521L1720.26,163.521C1720.26,163.521 1720.39,164.201 1720.45,164.547C1725.12,188.778 1744.88,224.878 1744.88,224.878L1627.35,224.878C1627.35,224.878 1647.19,188.599 1651.81,164.391C1651.85,164.192 1651.92,163.521 1651.92,163.521Z" style="fill:white;"/>
                </g>
                <g transform="matrix(5.63479e-17,-0.920231,0.918069,5.62155e-17,1578.69,1771.26)">
                    <path d="M1653,137.574C1652.54,128.48 1655.82,119.596 1662.08,112.997C1668.34,106.398 1677.03,102.662 1686.11,102.662C1686.11,102.608 1686.12,102.608 1686.12,102.608C1695.22,102.608 1703.92,106.35 1710.19,112.96C1716.46,119.57 1719.75,128.468 1719.29,137.577C1718.94,143.552 1719.06,149.735 1719.88,155.629C1719.94,156.086 1719.98,156.974 1719.98,156.974L1652.23,156.974C1652.23,156.974 1652.3,156.001 1652.35,155.629C1653.17,149.735 1653.29,143.552 1653,137.574Z" style="fill:rgb(255,160,0);"/>
                </g>
                <g transform="matrix(2.88215,1.20929,-1.20929,2.88215,-5573.41,-2962.37)">
                    <path d="M2555.55,54.915L2551.14,47.003C2549.74,47.02 2548.26,47.594 2546.96,48.198L2549.28,56.622C2549.75,58.353 2551.54,59.375 2553.27,58.904C2555,58.433 2556.02,56.646 2555.55,54.915Z" style="fill:white;"/>
                </g>
                <g transform="matrix(1,0,0,1,-6.47081,0)">
                    <path d="M1805.73,200.397C1816.35,200.397 1824.98,209.021 1824.98,219.644C1824.98,230.267 1816.35,238.892 1805.73,238.892C1804.89,238.892 1803.25,238.732 1803.25,238.732L1803.86,200.487C1803.86,200.487 1805.1,200.397 1805.73,200.397Z" style="fill:rgb(255,160,0);"/>
                </g>
                <g transform="matrix(1,0,0,0.805331,16.8553,41.9067)">
                    <path d="M1776.15,147.734L1776.15,293.669C1776.15,297.953 1778.95,301.431 1782.4,301.431C1785.86,301.431 1788.66,297.953 1788.66,293.669L1788.66,147.734C1788.66,143.45 1785.86,139.972 1782.4,139.972C1778.95,139.972 1776.15,143.45 1776.15,147.734Z" style="fill:rgb(255,160,0);"/>
                </g>
            </g>
        </g>
    </g>
</svg>
