<?xml version="1.0" encoding="UTF-8"?>
<svg width="516px" height="119px" viewBox="0 0 516 119" version="1.1" xmlns="http://www.w3.org/2000/svg" xmlns:xlink="http://www.w3.org/1999/xlink">
    <!-- Generator: Sketch 50.2 (55047) - http://www.bohemiancoding.com/sketch -->
    <title>og_logo - white</title>
    <desc>Created with Sketch.</desc>
    <defs></defs>
    <g id="og_logo---white" stroke="none" stroke-width="1" fill="none" fill-rule="evenodd">
        <path d="M413.231,41.4447 C413.231,42.9627 411.974,44.1937 410.423,44.1937 C408.881,44.1937 407.626,42.9627 407.626,41.4447 C407.626,39.9237 408.881,38.6947 410.423,38.6947 C411.974,38.6947 413.231,39.9237 413.231,41.4447" id="Shape" fill="#FFFFFF" fill-rule="nonzero"></path>
        <path d="M424.313,35.8094 C424.313,33.2914 422.237,31.2444 419.68,31.2444 C417.122,31.2444 415.048,33.2914 415.048,35.8094 C415.048,38.3324 417.122,40.3724 419.68,40.3724 C422.237,40.3724 424.313,38.3324 424.313,35.8094" id="Shape" fill="#FFFFFF" fill-rule="nonzero"></path>
        <path d="M468.242,16.2235 C468.242,7.4585 456.049,0.3515 441.002,0.3515 C425.959,0.3515 413.76,7.4585 413.76,16.2235 C413.76,24.9885 425.959,32.0955 441.002,32.0955 C456.049,32.0955 468.242,24.9885 468.242,16.2235" id="Shape" fill="#FFFFFF" fill-rule="nonzero"></path>
        <path d="M35.9722,90.0419 C51.9222,90.0419 64.1612,77.1999 64.1612,61.2499 C64.1612,45.2979 51.9222,32.3569 35.9722,32.3569 C20.0212,32.3569 7.8812,45.2979 7.8812,61.2499 C7.8812,77.1999 20.0212,90.0419 35.9722,90.0419 M35.9722,25.7369 C55.6342,25.7369 70.7822,41.5859 70.7822,61.2499 C70.7822,80.8129 55.6342,96.6619 35.9722,96.6619 C16.4092,96.6619 1.2602,80.8129 1.2602,61.2499 C1.2602,41.5859 16.4092,25.7369 35.9722,25.7369" id="Shape" fill="#FFFFFF" fill-rule="nonzero"></path>
        <path d="M105.516,54.528 C95.985,54.528 87.859,60.948 87.859,72.485 C87.859,84.022 97.089,89.942 105.516,89.942 C115.247,89.942 122.771,83.219 122.771,72.485 C122.771,62.052 115.247,54.528 105.516,54.528 Z M81.138,48.81 L87.859,48.81 L87.859,56.936 C91.371,51.017 98.694,47.807 105.516,47.807 C118.859,47.807 129.493,57.637 129.493,72.485 C129.493,87.333 118.859,96.662 105.516,96.662 C98.694,96.662 91.371,93.954 87.859,88.035 L87.859,118.332 L81.138,118.332 L81.138,48.81 Z" id="Shape" fill="#FFFFFF" fill-rule="nonzero"></path>
        <path d="M176.116,68.9745 C174.812,60.0445 168.592,54.4275 159.964,54.4275 C151.236,54.4275 144.414,60.0445 143.111,68.9745 L176.116,68.9745 Z M136.289,72.0845 C136.289,57.2365 146.621,47.8065 159.964,47.8065 C173.307,47.8065 182.937,57.2365 182.937,72.0845 C182.937,73.0865 182.937,74.2895 182.837,75.1945 L143.111,75.1945 C144.314,84.3235 151.236,90.0415 159.964,90.0415 C166.285,90.0415 171.702,87.0325 174.611,81.9145 C176.617,82.4165 179.226,82.9185 181.333,83.4205 C177.52,91.7455 169.395,96.6615 159.964,96.6615 C146.621,96.6615 136.289,86.9315 136.289,72.0845 Z" id="Shape" fill="#FFFFFF" fill-rule="nonzero"></path>
        <path d="M196.887,95.659 L190.166,95.659 L190.166,48.81 L196.887,48.81 L196.887,56.535 C199.797,50.414 207.019,47.807 212.437,47.807 C223.873,47.807 230.595,55.632 230.495,68.372 L230.495,95.659 L223.773,95.659 L223.773,68.372 C223.773,59.745 219.66,54.428 212.437,54.428 C205.013,54.428 196.887,58.641 196.887,70.077 L196.887,95.659 Z" id="Shape" fill="#FFFFFF" fill-rule="nonzero"></path>
        <path d="M306.31,61.7508 C306.31,85.2258 293.874,96.6608 274.21,96.6608 C254.646,96.6608 239.497,80.8128 239.497,61.2488 C239.497,41.5878 254.646,25.7368 274.21,25.7368 C282.633,25.7368 290.258,28.7468 296.28,33.7628 L291.561,38.4768 C286.85,34.6638 280.832,32.3588 274.21,32.3588 C258.259,32.3588 246.118,45.2998 246.118,61.2488 C246.118,77.1998 258.259,90.0408 274.21,90.0408 C289.154,90.0408 298.085,81.7158 298.886,67.9718 L278.724,67.9718 L278.724,61.7508 L306.31,61.7508 Z" id="Shape" fill="#FFFFFF" fill-rule="nonzero"></path>
        <path d="M351.397,68.9754 C350.093,60.0464 343.876,54.4264 335.247,54.4264 C326.519,54.4264 319.697,60.0464 318.393,68.9754 L351.397,68.9754 Z M311.571,72.0844 C311.571,57.2374 321.903,47.8084 335.247,47.8084 C348.59,47.8084 358.22,57.2374 358.22,72.0844 C358.22,73.0864 358.22,74.2894 358.118,75.1954 L318.393,75.1954 C319.595,84.3244 326.519,90.0404 335.247,90.0404 C341.567,90.0404 346.985,87.0344 349.893,81.9164 C351.899,82.4174 354.51,82.9184 356.614,83.4204 C352.802,91.7464 344.675,96.6614 335.247,96.6614 C321.903,96.6614 311.571,86.9334 311.571,72.0844 Z" id="Shape" fill="#FFFFFF" fill-rule="nonzero"></path>
        <path d="M372.679,95.659 L365.962,95.659 L365.962,48.81 L372.679,48.81 L372.679,56.535 C375.591,50.417 382.815,47.808 388.233,47.808 C399.667,47.808 406.393,55.632 406.287,68.373 L406.287,95.659 L399.566,95.659 L399.566,68.373 C399.566,59.744 395.455,54.427 388.233,54.427 C380.809,54.427 372.679,58.642 372.679,70.077 L372.679,95.659 Z" id="Shape" fill="#FFFFFF" fill-rule="nonzero"></path>
        <rect id="Rectangle-path" fill="#FFFFFF" transform="translate(419.778000, 72.234500) scale(-1, 1) translate(-419.778000, -72.234500) " x="416.467" y="48.81" width="6.622" height="46.849"></rect>
        <path d="M466.695,48.81 L473.417,48.81 L473.417,95.659 L466.695,95.659 L466.695,87.933 C463.786,94.054 456.558,96.661 451.145,96.661 C439.706,96.661 432.984,88.839 433.088,76.099 L433.088,48.81 L439.807,48.81 L439.807,76.099 C439.807,84.724 443.918,90.041 451.145,90.041 C458.568,90.041 466.695,85.829 466.695,74.392 L466.695,48.81 Z" id="Shape" fill="#FFFFFF" fill-rule="nonzero"></path>
        <path d="M487.125,82.2186 C488.028,85.7286 490.234,90.3426 498.16,90.3426 C504.178,90.3426 508.092,87.3326 508.092,82.9186 C508.092,79.8086 506.286,76.8996 501.372,75.6966 L494.851,74.1926 C489.029,72.7876 481.806,69.8756 483.011,58.9426 C484.016,52.2226 490.639,47.8076 498.258,47.8076 C505.485,47.8076 511.802,51.3176 513.007,59.9466 L506.487,59.9466 C505.685,56.3336 502.273,54.2286 498.258,54.2286 C493.744,54.2286 490.034,56.6366 489.531,59.9466 C488.526,65.3626 493.143,66.9686 496.456,67.7716 L502.875,69.2766 C511.703,71.3816 514.715,76.4976 514.715,82.9186 C514.715,91.0456 507.287,96.6606 497.56,96.6606 C489.637,96.6606 481.609,91.3436 481.205,82.2186 L487.125,82.2186 Z" id="Shape" fill="#FFFFFF" fill-rule="nonzero"></path>
    </g>
</svg>