<?xml version="1.0" encoding="UTF-8" standalone="no"?>
<!DOCTYPE svg PUBLIC "-//W3C//DTD SVG 1.1//EN" "http://www.w3.org/Graphics/SVG/1.1/DTD/svg11.dtd">
<svg width="100%" height="100%" viewBox="0 0 525 129" version="1.1" xmlns="http://www.w3.org/2000/svg" xmlns:xlink="http://www.w3.org/1999/xlink" xml:space="preserve" xmlns:serif="http://www.serif.com/" style="fill-rule:evenodd;clip-rule:evenodd;stroke-linejoin:round;stroke-miterlimit:1.41421;">
    <g transform="matrix(1,0,0,1,-34,-18)">
        <g id="OG-Logo" serif:id="OG Logo">
            <g transform="matrix(1,0,0,1,452.231,64.4437)">
                <path d="M0,0.001C0,1.519 -1.257,2.75 -2.808,2.75C-4.35,2.75 -5.605,1.519 -5.605,0.001C-5.605,-1.52 -4.35,-2.749 -2.808,-2.749C-1.257,-2.749 0,-1.52 0,0.001" style="fill:rgb(234,103,43);fill-rule:nonzero;"/>
            </g>
            <g transform="matrix(1,0,0,1,463.313,58.8074)">
                <path d="M0,0.002C0,-2.516 -2.076,-4.563 -4.633,-4.563C-7.191,-4.563 -9.265,-2.516 -9.265,0.002C-9.265,2.525 -7.191,4.565 -4.633,4.565C-2.076,4.565 0,2.525 0,0.002" style="fill:rgb(234,103,43);fill-rule:nonzero;"/>
            </g>
            <g transform="matrix(1,0,0,1,507.242,39.2235)">
                <path d="M0,0C0,-8.765 -12.193,-15.872 -27.24,-15.872C-42.283,-15.872 -54.482,-8.765 -54.482,0C-54.482,8.765 -42.283,15.872 -27.24,15.872C-12.193,15.872 0,8.765 0,0" style="fill:rgb(234,103,43);fill-rule:nonzero;"/>
            </g>
            <g transform="matrix(1,0,0,1,74.9722,55.3569)">
                <path d="M0,57.685C15.95,57.685 28.189,44.843 28.189,28.893C28.189,12.941 15.95,0 0,0C-15.951,0 -28.091,12.941 -28.091,28.893C-28.091,44.843 -15.951,57.685 0,57.685M0,-6.62C19.662,-6.62 34.81,9.229 34.81,28.893C34.81,48.456 19.662,64.305 0,64.305C-19.563,64.305 -34.712,48.456 -34.712,28.893C-34.712,9.229 -19.563,-6.62 0,-6.62" style="fill:rgb(89,88,90);fill-rule:nonzero;"/>
            </g>
            <g transform="matrix(1,0,0,1,144.516,134.611)">
                <path d="M0,-57.083C-9.531,-57.083 -17.657,-50.663 -17.657,-39.126C-17.657,-27.589 -8.427,-21.669 0,-21.669C9.731,-21.669 17.255,-28.392 17.255,-39.126C17.255,-49.559 9.731,-57.083 0,-57.083M-24.378,-62.801L-17.657,-62.801L-17.657,-54.675C-14.145,-60.594 -6.822,-63.804 0,-63.804C13.343,-63.804 23.977,-53.974 23.977,-39.126C23.977,-24.278 13.343,-14.949 0,-14.949C-6.822,-14.949 -14.145,-17.657 -17.657,-23.576L-17.657,6.721L-24.378,6.721L-24.378,-62.801Z" style="fill:rgb(89,88,90);fill-rule:nonzero;"/>
            </g>
            <g transform="matrix(1,0,0,1,215.116,98.4935)">
                <path d="M0,-6.519C-1.304,-15.449 -7.524,-21.066 -16.152,-21.066C-24.88,-21.066 -31.702,-15.449 -33.005,-6.519L0,-6.519ZM-39.827,-3.409C-39.827,-18.257 -29.495,-27.687 -16.152,-27.687C-2.809,-27.687 6.821,-18.257 6.821,-3.409C6.821,-2.407 6.821,-1.204 6.721,-0.299L-33.005,-0.299C-31.802,8.83 -24.88,14.548 -16.152,14.548C-9.831,14.548 -4.414,11.539 -1.505,6.421C0.501,6.923 3.11,7.425 5.217,7.927C1.404,16.252 -6.721,21.168 -16.152,21.168C-29.495,21.168 -39.827,11.438 -39.827,-3.409" style="fill:rgb(89,88,90);fill-rule:nonzero;"/>
            </g>
            <g transform="matrix(1,0,0,1,235.887,70.807)">
                <path d="M0,47.852L-6.721,47.852L-6.721,1.003L0,1.003L0,8.728C2.91,2.607 10.132,0 15.55,0C26.986,0 33.708,7.825 33.608,20.565L33.608,47.852L26.886,47.852L26.886,20.565C26.886,11.938 22.773,6.621 15.55,6.621C8.126,6.621 0,10.834 0,22.27L0,47.852Z" style="fill:rgb(89,88,90);fill-rule:nonzero;"/>
            </g>
            <g transform="matrix(1,0,0,1,345.31,83.6468)">
                <path d="M0,1.104C0,24.579 -12.436,36.014 -32.1,36.014C-51.664,36.014 -66.813,20.166 -66.813,0.602C-66.813,-19.059 -51.664,-34.91 -32.1,-34.91C-23.677,-34.91 -16.052,-31.9 -10.03,-26.884L-14.749,-22.17C-19.46,-25.983 -25.478,-28.288 -32.1,-28.288C-48.051,-28.288 -60.192,-15.347 -60.192,0.602C-60.192,16.553 -48.051,29.394 -32.1,29.394C-17.156,29.394 -8.225,21.069 -7.424,7.325L-27.586,7.325L-27.586,1.104L0,1.104Z" style="fill:rgb(234,103,43);fill-rule:nonzero;"/>
            </g>
            <g transform="matrix(1,0,0,1,390.397,98.4944)">
                <path d="M0,-6.519C-1.304,-15.448 -7.521,-21.068 -16.15,-21.068C-24.878,-21.068 -31.7,-15.448 -33.004,-6.519L0,-6.519ZM-39.826,-3.41C-39.826,-18.257 -29.494,-27.686 -16.15,-27.686C-2.807,-27.686 6.823,-18.257 6.823,-3.41C6.823,-2.408 6.823,-1.205 6.721,-0.299L-33.004,-0.299C-31.802,8.83 -24.878,14.546 -16.15,14.546C-9.83,14.546 -4.412,11.54 -1.504,6.422C0.502,6.923 3.113,7.424 5.217,7.926C1.405,16.252 -6.722,21.167 -16.15,21.167C-29.494,21.167 -39.826,11.439 -39.826,-3.41" style="fill:rgb(234,103,43);fill-rule:nonzero;"/>
            </g>
            <g transform="matrix(1,0,0,1,411.679,70.808)">
                <path d="M0,47.851L-6.717,47.851L-6.717,1.002L0,1.002L0,8.727C2.912,2.609 10.136,0 15.554,0C26.988,0 33.714,7.824 33.608,20.565L33.608,47.851L26.887,47.851L26.887,20.565C26.887,11.936 22.776,6.619 15.554,6.619C8.13,6.619 0,10.834 0,22.269L0,47.851Z" style="fill:rgb(234,103,43);fill-rule:nonzero;"/>
            </g>
            <g transform="matrix(-1,-0,-0,1,917.556,-651.421)">
                <rect x="455.467" y="723.231" width="6.622" height="46.849" style="fill:rgb(234,103,43);"/>
            </g>
            <g transform="matrix(1,0,0,1,505.695,119.661)">
                <path d="M0,-47.851L6.722,-47.851L6.722,-1.002L0,-1.002L0,-8.728C-2.909,-2.607 -10.137,0 -15.55,0C-26.989,0 -33.711,-7.822 -33.607,-20.562L-33.607,-47.851L-26.888,-47.851L-26.888,-20.562C-26.888,-11.937 -22.777,-6.62 -15.55,-6.62C-8.127,-6.62 0,-10.832 0,-22.269L0,-47.851Z" style="fill:rgb(234,103,43);fill-rule:nonzero;"/>
            </g>
            <g transform="matrix(1,0,0,1,526.125,85.2496)">
                <path d="M0,19.969C0.903,23.479 3.109,28.093 11.035,28.093C17.053,28.093 20.967,25.083 20.967,20.669C20.967,17.559 19.161,14.65 14.247,13.447L7.726,11.943C1.904,10.538 -5.319,7.626 -4.114,-3.307C-3.109,-10.027 3.514,-14.442 11.133,-14.442C18.36,-14.442 24.677,-10.932 25.882,-2.303L19.362,-2.303C18.56,-5.916 15.148,-8.021 11.133,-8.021C6.619,-8.021 2.909,-5.613 2.406,-2.303C1.401,3.113 6.018,4.719 9.331,5.522L15.75,7.027C24.578,9.132 27.59,14.248 27.59,20.669C27.59,28.796 20.162,34.411 10.435,34.411C2.512,34.411 -5.516,29.094 -5.92,19.969L0,19.969Z" style="fill:rgb(234,103,43);fill-rule:nonzero;"/>
            </g>
        </g>
    </g>
</svg>
