<?xml version="1.0" encoding="UTF-8" standalone="no"?>
<!DOCTYPE svg PUBLIC "-//W3C//DTD SVG 1.1//EN" "http://www.w3.org/Graphics/SVG/1.1/DTD/svg11.dtd">
<svg width="100%" height="100%" viewBox="0 0 44 44" version="1.1" xmlns="http://www.w3.org/2000/svg" xmlns:xlink="http://www.w3.org/1999/xlink" xml:space="preserve" xmlns:serif="http://www.serif.com/" style="fill-rule:evenodd;clip-rule:evenodd;stroke-linejoin:round;stroke-miterlimit:2;">
    <g transform="matrix(1,0,0,1,-15580,-3645)">
        <g transform="matrix(0.217662,0,0,0.217662,15575.6,3640.47)">
            <g id="options_icon" transform="matrix(4.59427,0,0,4.59427,-71558.4,-16725.3)">
                <path d="M15586.7,3679.28C15587,3678.1 15587.7,3677.04 15588.6,3676.12C15590,3674.73 15591.7,3674.03 15593.8,3674.03C15595.8,3674.03 15597.5,3674.73 15598.9,3676.12C15599.8,3677.04 15600.4,3678.1 15600.7,3679.28L15620,3679.28C15621.5,3679.28 15622.7,3680.18 15622.7,3681.28C15622.7,3682.39 15621.5,3683.28 15620,3683.28L15600.7,3683.28C15600.4,3684.44 15599.8,3685.48 15598.9,3686.4C15597.5,3687.82 15595.8,3688.54 15593.7,3688.54C15591.7,3688.54 15590,3687.82 15588.6,3686.4C15587.7,3685.48 15587.1,3684.44 15586.7,3683.28L15585.6,3683.28C15584.1,3683.28 15582.8,3682.39 15582.8,3681.28C15582.8,3680.18 15584.1,3679.28 15585.6,3679.28L15586.7,3679.28ZM15605,3664.77C15605.4,3663.78 15605.9,3662.9 15606.7,3662.11C15608.2,3660.71 15609.9,3660.01 15611.9,3660.01C15613.9,3660.01 15615.6,3660.71 15617,3662.11C15617.8,3662.9 15618.4,3663.78 15618.7,3664.77L15620,3664.77C15621.5,3664.77 15622.7,3665.67 15622.7,3666.77C15622.7,3667.88 15621.5,3668.77 15620,3668.77L15619,3668.77C15618.7,3670.13 15618,3671.33 15617,3672.38C15615.6,3673.8 15613.9,3674.52 15611.9,3674.52C15609.9,3674.52 15608.2,3673.8 15606.7,3672.38C15605.7,3671.33 15605,3670.13 15604.8,3668.77L15585.6,3668.77C15584.1,3668.77 15582.8,3667.88 15582.8,3666.77C15582.8,3665.67 15584.1,3664.77 15585.6,3664.77L15605,3664.77ZM15590.3,3650.26C15590.7,3649.08 15591.3,3648.02 15592.2,3647.1C15593.7,3645.7 15595.4,3645.01 15597.4,3645.01C15599.4,3645.01 15601.1,3645.7 15602.5,3647.1C15603.4,3648.02 15604,3649.08 15604.4,3650.26L15620,3650.26C15621.5,3650.26 15622.7,3651.16 15622.7,3652.26C15622.7,3653.37 15621.5,3654.26 15620,3654.26L15604.3,3654.26C15604,3655.42 15603.4,3656.46 15602.5,3657.37C15601.1,3658.8 15599.4,3659.52 15597.3,3659.52C15595.4,3659.52 15593.7,3658.8 15592.2,3657.37C15591.3,3656.46 15590.7,3655.42 15590.4,3654.26L15585.6,3654.26C15584.1,3654.26 15582.8,3653.37 15582.8,3652.26C15582.8,3651.16 15584.1,3650.26 15585.6,3650.26L15590.3,3650.26Z" style="fill:rgb(0,144,255);"/>
            </g>
        </g>
    </g>
</svg>
