<svg width="100%" height="100%" viewBox="0 0 45 45" version="1.1" xmlns="http://www.w3.org/2000/svg" xml:space="preserve" style="fill-rule:evenodd;clip-rule:evenodd;stroke-linejoin:round;stroke-miterlimit:2;">
    <g transform="matrix(1,0,0,1,-11904,-12891)">
        <g transform="matrix(1.10927,0,0,1.10927,11014.1,12636.7)">
            <g id="outdent_icon" transform="matrix(0.901494,0,0,0.901494,-9627.97,-11137.4)">
                <path d="M11596.6,12649L11596.6,12645.5L11614.8,12645.5L11614.8,12649L11596.6,12649ZM11596.6,12641L11596.6,12637.5L11614.8,12637.5L11614.8,12641L11596.6,12641ZM11596.6,12633L11596.6,12629.5L11614.8,12629.5L11614.8,12633L11596.6,12633ZM11570.8,12625L11570.8,12621.5L11614.8,12621.5L11614.8,12625L11570.8,12625ZM11570.8,12617L11570.8,12613.5L11614.8,12613.5L11614.8,12617L11570.8,12617ZM11578,12639.6L11592.5,12630.4L11592.5,12648.8L11578,12639.6ZM11575.7,12629.5L11575.7,12649L11571.9,12649L11571.9,12629.5L11575.7,12629.5Z" style="fill:rgb(0,144,255);"/>
            </g>
        </g>
    </g>
</svg>
