<?xml version="1.0" encoding="UTF-8" standalone="no"?>
<!DOCTYPE svg PUBLIC "-//W3C//DTD SVG 1.1//EN" "http://www.w3.org/Graphics/SVG/1.1/DTD/svg11.dtd">
<svg width="100%" height="100%" viewBox="0 0 51 51" version="1.1" xmlns="http://www.w3.org/2000/svg" xmlns:xlink="http://www.w3.org/1999/xlink" xml:space="preserve" xmlns:serif="http://www.serif.com/" style="fill-rule:evenodd;clip-rule:evenodd;stroke-linejoin:round;stroke-miterlimit:2;">
    <g transform="matrix(1,0,0,1,-5476,-138)">
        <g id="planmembers" transform="matrix(0.251536,0,0,0.285081,4196.38,119.798)">
            <rect x="5089.69" y="65" width="198.778" height="175.389" style="fill:none;"/>
            <g id="Plan-members" serif:id="Plan members" transform="matrix(3.91272,0,0,3.45233,-8795.71,-1214.3)">
                <g transform="matrix(1.01606,0,0,1.01606,-1848.76,-694.78)">
                    <path d="M5359.72,1059.81C5359.72,1058.17 5358.39,1056.83 5356.75,1056.83L5317.7,1056.83C5316.06,1056.83 5314.72,1058.17 5314.72,1059.81L5314.72,1087.55C5314.72,1089.19 5316.06,1090.52 5317.7,1090.52L5356.75,1090.52C5358.39,1090.52 5359.72,1089.19 5359.72,1087.55L5359.72,1059.81ZM5341.97,1080.93L5353.27,1080.93C5353.96,1080.93 5354.52,1080.37 5354.52,1079.68C5354.52,1078.99 5353.96,1078.43 5353.27,1078.43L5341.97,1078.43C5341.28,1078.43 5340.72,1078.99 5340.72,1079.68C5340.72,1080.37 5341.28,1080.93 5341.97,1080.93ZM5341.97,1074.93L5353.27,1074.93C5353.96,1074.93 5354.52,1074.37 5354.52,1073.68C5354.52,1072.99 5353.96,1072.43 5353.27,1072.43L5341.97,1072.43C5341.28,1072.43 5340.72,1072.99 5340.72,1073.68C5340.72,1074.37 5341.28,1074.93 5341.97,1074.93ZM5341.97,1068.93L5353.27,1068.93C5353.96,1068.93 5354.52,1068.37 5354.52,1067.68C5354.52,1066.99 5353.96,1066.43 5353.27,1066.43L5341.97,1066.43C5341.28,1066.43 5340.72,1066.99 5340.72,1067.68C5340.72,1068.37 5341.28,1068.93 5341.97,1068.93Z" style="fill:white;"/>
                </g>
                <g transform="matrix(0.972281,4.79371e-32,0,0.972281,-146.242,-170.268)">
                    <path d="M3817.31,583.19C3823,583.19 3827.61,586.997 3827.61,591.686C3827.61,594.22 3823,593.725 3817.31,593.725C3811.63,593.725 3807.01,594.156 3807.01,591.686C3807.01,586.997 3811.63,583.19 3817.31,583.19ZM3817.31,571.053C3819.93,571.053 3822.05,573.176 3822.05,575.792C3822.05,578.407 3819.93,580.531 3817.31,580.531C3814.7,580.531 3812.57,578.407 3812.57,575.792C3812.57,573.176 3814.7,571.053 3817.31,571.053Z" style="fill:rgb(255,123,0);"/>
                </g>
            </g>
        </g>
    </g>
</svg>
