<?xml version="1.0" encoding="UTF-8" standalone="no"?>
<!DOCTYPE svg PUBLIC "-//W3C//DTD SVG 1.1//EN" "http://www.w3.org/Graphics/SVG/1.1/DTD/svg11.dtd">
<svg width="100%" height="100%" viewBox="0 0 51 51" version="1.1" xmlns="http://www.w3.org/2000/svg" xmlns:xlink="http://www.w3.org/1999/xlink" xml:space="preserve" xmlns:serif="http://www.serif.com/" style="fill-rule:evenodd;clip-rule:evenodd;stroke-linecap:round;stroke-linejoin:round;stroke-miterlimit:1.5;">
    <g transform="matrix(1,0,0,1,-5236,-65)">
        <g id="pulse" transform="matrix(0.251536,0,0,0.285081,3956.38,46.7969)">
            <rect x="5089.69" y="65" width="198.778" height="175.389" style="fill:none;"/>
            <g id="Pulse" transform="matrix(3.6134,0,0,3.18823,-3097.72,377.728)">
                <path d="M2318.11,-90.968C2318.11,-93.38 2316.15,-95.338 2313.74,-95.338L2272.97,-95.338C2270.56,-95.338 2268.6,-93.38 2268.6,-90.968L2268.6,-50.198C2268.6,-47.786 2270.56,-45.827 2272.97,-45.827L2313.74,-45.827C2316.15,-45.827 2318.11,-47.786 2318.11,-50.198L2318.11,-90.968ZM2308.39,-87.862C2310.53,-87.862 2312.27,-86.126 2312.27,-83.989C2312.27,-81.852 2310.53,-80.116 2308.39,-80.116C2306.26,-80.116 2304.52,-81.852 2304.52,-83.989C2304.52,-86.126 2306.26,-87.862 2308.39,-87.862Z" style="fill:white;"/>
                <g transform="matrix(1,0,0,1,-1.18554,-2.55098)">
                    <path d="M2274.58,-61.853L2277.79,-61.853L2284.25,-81.438L2291.47,-50.777L2299.03,-70.583L2302.86,-62.181L2311.93,-62.181" style="fill:none;stroke:rgb(255,0,151);stroke-width:4.4px;"/>
                </g>
            </g>
        </g>
    </g>
</svg>
