<?xml version="1.0" encoding="UTF-8" standalone="no"?>
<!DOCTYPE svg PUBLIC "-//W3C//DTD SVG 1.1//EN" "http://www.w3.org/Graphics/SVG/1.1/DTD/svg11.dtd">
<svg width="100%" height="100%" viewBox="0 0 51 51" version="1.1" xmlns="http://www.w3.org/2000/svg" xmlns:xlink="http://www.w3.org/1999/xlink" xml:space="preserve" xmlns:serif="http://www.serif.com/" style="fill-rule:evenodd;clip-rule:evenodd;stroke-linejoin:round;stroke-miterlimit:2;">
    <g transform="matrix(1,0,0,1,-5236,-138)">
        <g id="recommend" transform="matrix(0.251536,0,0,0.285081,3956.38,119.798)">
            <rect x="5089.69" y="65" width="198.778" height="175.389" style="fill:none;"/>
            <g id="Recommend" transform="matrix(4.14714,0,0,3.65916,-9628.68,-3685.49)">
                <path d="M3563.26,1052.08C3563.26,1051.21 3562.56,1050.5 3561.69,1050.5L3554.41,1050.5C3553.54,1050.5 3552.83,1051.21 3552.83,1052.08L3553.14,1068.62C3553.14,1069.5 3553.85,1070.2 3554.72,1070.2L3561.27,1070.2C3562.14,1070.2 3562.85,1069.5 3562.85,1068.62L3563.26,1052.08ZM3558.05,1066.55C3558.68,1066.55 3559.19,1067.07 3559.19,1067.7C3559.19,1068.33 3558.68,1068.85 3558.05,1068.85C3557.41,1068.85 3556.9,1068.33 3556.9,1067.7C3556.9,1067.07 3557.41,1066.55 3558.05,1066.55Z" style="fill:rgb(255,201,0);"/>
                <g transform="matrix(1,0,0,1,-2.36374,6.31039)">
                    <path d="M3563.95,1025.64L3565.66,1029.15L3569.52,1029.69L3566.71,1032.4L3567.39,1036.24L3563.95,1034.41L3560.5,1036.24L3561.18,1032.4L3558.38,1029.69L3562.24,1029.15L3563.95,1025.64Z" style="fill:rgb(255,201,0);"/>
                </g>
                <g transform="matrix(0.794093,0,0,0.794093,758.654,219.024)">
                    <path d="M3563.95,1025.64L3565.66,1029.15L3569.52,1029.69L3566.71,1032.4L3567.39,1036.24L3563.95,1034.41L3560.5,1036.24L3561.18,1032.4L3558.38,1029.69L3562.24,1029.15L3563.95,1025.64Z" style="fill:rgb(255,201,0);"/>
                </g>
                <g transform="matrix(0.73092,0,0,0.73092,969.319,277.652)">
                    <path d="M3563.95,1025.64L3565.66,1029.15L3569.52,1029.69L3566.71,1032.4L3567.39,1036.24L3563.95,1034.41L3560.5,1036.24L3561.18,1032.4L3558.38,1029.69L3562.24,1029.15L3563.95,1025.64Z" style="fill:rgb(255,201,0);"/>
                </g>
                <g transform="matrix(0.177274,0,0,0.177274,2926.83,857.939)">
                    <path d="M3601.27,1098.42C3601.27,1098.42 3612.59,1098.51 3625.68,1095.37C3639.29,1092.12 3650.44,1074.56 3661.52,1055.6C3676.98,1029.15 3662.48,1020.87 3678.5,1014.49C3694.52,1008.12 3699.73,1060.07 3684.27,1091.13C3709.71,1090.19 3748.98,1088.11 3749.16,1106.48C3749.27,1117.67 3745.28,1115.32 3744.22,1123.9C3743.42,1130.34 3749.81,1133.08 3749,1144.44C3748.54,1150.88 3740.63,1151.14 3741.7,1155.76C3742.35,1158.58 3745.02,1164.33 3743.33,1170.25C3741.69,1176.02 3733.75,1178.65 3734.06,1184.05C3734.16,1185.65 3734.25,1189.08 3732.59,1191.73C3730.83,1194.51 3727.24,1196.51 3724.5,1197.38C3717.1,1199.74 3685.83,1199.21 3656.5,1195.11C3631.92,1191.67 3617.19,1184.15 3599.31,1184.15C3599.25,1160.75 3601.27,1098.42 3601.27,1098.42Z" style="fill:white;"/>
                </g>
            </g>
        </g>
    </g>
</svg>
