<?xml version="1.0" encoding="UTF-8" standalone="no"?>
<!DOCTYPE svg PUBLIC "-//W3C//DTD SVG 1.1//EN" "http://www.w3.org/Graphics/SVG/1.1/DTD/svg11.dtd">
<svg width="100%" height="100%" viewBox="0 0 51 51" version="1.1" xmlns="http://www.w3.org/2000/svg" xmlns:xlink="http://www.w3.org/1999/xlink" xml:space="preserve" xmlns:serif="http://www.serif.com/" style="fill-rule:evenodd;clip-rule:evenodd;stroke-linejoin:round;stroke-miterlimit:2;">
    <g transform="matrix(1,0,0,1,-5536,-65)">
        <g id="whatsnew" transform="matrix(0.251536,0,0,0.285081,4256.38,46.7969)">
            <rect x="5089.69" y="65" width="198.778" height="175.389" style="fill:none;"/>
            <g id="What-s-New" serif:id="What&apos;s New" transform="matrix(3.6134,0,0,3.18823,-3308.01,219.099)">
                <g transform="matrix(1,0,0,1,58.1976,49.7545)">
                    <path d="M2318.11,-81.98L2268.6,-81.98L2268.6,-50.198C2268.6,-47.786 2270.56,-45.827 2272.97,-45.827L2313.74,-45.827C2316.15,-45.827 2318.11,-47.786 2318.11,-50.198L2318.11,-81.98ZM2268.6,-84.853L2318.11,-84.853L2318.11,-90.968C2318.11,-93.38 2316.15,-95.338 2313.74,-95.338L2272.97,-95.338C2270.56,-95.338 2268.6,-93.38 2268.6,-90.968L2268.6,-84.853ZM2281.99,-91.971C2283.09,-91.971 2283.98,-91.079 2283.98,-89.98C2283.98,-88.881 2283.09,-87.989 2281.99,-87.989C2280.89,-87.989 2279.99,-88.881 2279.99,-89.98C2279.99,-91.079 2280.89,-91.971 2281.99,-91.971ZM2275.32,-91.971C2276.42,-91.971 2277.31,-91.079 2277.31,-89.98C2277.31,-88.881 2276.42,-87.989 2275.32,-87.989C2274.22,-87.989 2273.33,-88.881 2273.33,-89.98C2273.33,-91.079 2274.22,-91.971 2275.32,-91.971ZM2288.65,-91.971C2289.75,-91.971 2290.64,-91.079 2290.64,-89.98C2290.64,-88.881 2289.75,-87.989 2288.65,-87.989C2287.55,-87.989 2286.66,-88.881 2286.66,-89.98C2286.66,-91.079 2287.55,-91.971 2288.65,-91.971Z" style="fill:white;"/>
                </g>
                <g transform="matrix(0.723194,0,0,1.00784,-271.152,-846.257)">
                    <path d="M3606.16,818.783L3621.21,818.783C3622.33,818.783 3623.25,818.129 3623.25,817.323C3623.25,816.517 3622.33,815.862 3621.21,815.862L3606.16,815.862C3605.04,815.862 3604.12,816.517 3604.12,817.323C3604.12,818.129 3605.04,818.783 3606.16,818.783Z" style="fill:rgb(0,151,228);"/>
                </g>
                <g transform="matrix(0.723194,0,0,1.00784,-271.152,-837.529)">
                    <path d="M3606.16,818.783L3621.21,818.783C3622.33,818.783 3623.25,818.129 3623.25,817.323C3623.25,816.517 3622.33,815.862 3621.21,815.862L3606.16,815.862C3605.04,815.862 3604.12,816.517 3604.12,817.323C3604.12,818.129 3605.04,818.783 3606.16,818.783Z" style="fill:rgb(0,151,228);"/>
                </g>
                <g transform="matrix(1.99428,0,0,1.00784,-4854.9,-828.8)">
                    <path d="M3606.16,818.735L3621.21,818.735C3621.6,818.735 3621.92,818.102 3621.92,817.323C3621.92,816.543 3621.6,815.911 3621.21,815.911L3606.16,815.911C3605.77,815.911 3605.45,816.543 3605.45,817.323C3605.45,818.102 3605.77,818.735 3606.16,818.735Z" style="fill:rgb(0,151,228);"/>
                </g>
                <g transform="matrix(2.28892e-17,0.402794,-0.770093,5.08108e-17,2997.32,-1456.73)">
                    <path d="M3556.04,831.468L3556.04,825.77L3575.43,825.77L3575.43,820.478L3590.99,828.619L3575.43,836.76L3575.43,831.468L3556.04,831.468Z" style="fill:rgb(0,151,228);"/>
                </g>
            </g>
        </g>
    </g>
</svg>
