<svg width="172" height="172" viewBox="0 0 172 172" xmlns="http://www.w3.org/2000/svg">
<g transform="matrix(3.6667268,0,0,3.6667268,0.40977484,5.2592129)">
<path d="M 17.6842,36.8487 2.88004,42.3528 C 2.40824,42.5283 1.878532,42.4357 1.494093,42.1106 1.109462,41.7855 0.9299413,41.2784 1.0242231,40.7837 1.719023,37.1377 2.95007,30.6765 2.95007,30.6765 c 0,0 2.18984,-11.4921 3.72606,-19.5548 C 7.55238,6.52298 11.2884,3.01151 15.9308,2.42341 19.5743,1.96198 23.9624,1.40622 27.8699,0.911296 33.5953,0.186134 38.8795,4.09165 39.8691,9.78015 L 45.6853,43.215 H 33.1257 c -0.7966,0 -1.4755,-0.5783 -1.6025,-1.3648 -0.207,-1.2825 -0.485,-3.0058 -0.485,-3.0058 l -0.001,-4e-4 -1.064,-6.6354 c 0.577,-0.3735 1.1335,-0.78 1.6653,-1.2159 3.2877,-2.6948 5.4689,-6.4171 6.8641,-10.3395 0.0352,-0.0988 0.0698,-0.1976 0.1039,-0.2967 0.0135,-0.0391 0.0269,-0.0782 0.0402,-0.1172 10e-4,-0.0027 0.0918,-0.3269 0.116,-0.5494 0.0585,-0.5354 -0.0471,-1.0875 -0.2959,-1.5703 -0.163,-0.3163 -0.4139,-0.5821 -0.6603,-0.8387 -0.264,-0.2747 -0.6246,-0.3912 -0.9604,-0.5377 -0.0027,-0.001 -0.3305,-0.0701 -0.5507,-0.1167 -0.5481,-0.0038 -1.0967,0.0518 -1.57,0.2957 -0.4828,0.2488 -0.8892,0.637 -1.1522,1.1069 -0.1099,0.1964 -0.2242,0.515 -0.2242,0.515 -0.5314,1.8026 -1.2337,3.5478 -2.1996,5.1497 -1.5353,2.546 -3.8277,4.6678 -6.5942,5.6284 -1.901,0.6522 -3.889,0.7546 -5.638,0.0098 -2.0781,-0.8847 -3.6947,-2.3449 -5.0112,-4.0639 -0.4,-0.5225 -0.6975,-1.116 -1.2843,-1.3969 -0.321,-0.1534 -0.6521,-0.3082 -1.0035,-0.3636 -0.5366,-0.0845 -1.09383,-0.0114 -1.58371,0.2123 -0.2053,0.094 -0.48623,0.2838 -0.48623,0.2838 -0.27284,0.2447 -0.57877,0.4685 -0.7429,0.8124 -0.15354,0.321 -0.30805,0.6524 -0.36346,1.0039 -0.08467,0.5369 -0.01155,1.0943 0.21223,1.5845 0.09332,0.2046 0.28265,0.4853 0.28265,0.4853 2.16152,2.8317 5.06182,5.2263 8.33102,6.3615 z M 21.053,12.8691 c 3.3271,0 6.0284,2.7025 6.0284,6.0313 0,3.3288 -2.7013,6.0313 -6.0284,6.0313 -3.3272,0 -6.0283,-2.7025 -6.0283,-6.0313 0,-3.3288 2.7011,-6.0313 6.0283,-6.0313 z" fill="#00C1FF" fill-rule="evenodd"/>
</g>
</svg>
