<svg width="253" height="65" viewBox="0 0 253 65" xmlns="http://www.w3.org/2000/svg">
<g transform="matrix(2.27605,0,0,2.27605,-96.632496,-17.617754)">
<path d="m 107.307,10.449 c 3.68,0.0374 7.243,2.0895 9.25,5.2078 2.437,3.7887 2.535,8.9803 0.22,12.8728 -2.305,3.8751 -7.014,6.239 -11.556,5.3747 -3.113,-0.5925 -5.9012,-2.6352 -7.5307,-5.3747 -2.3047,-3.8749 -2.2249,-9.0724 0.2203,-12.8728 1.9989,-3.1068 5.5454,-5.17 9.2494,-5.2078 0.049,-2e-4 0.098,-2e-4 0.147,0 z M 82.4347,24.6368 72.9161,14.5074 c -0.999,-1.1269 -0.64,-3.1086 0.7735,-3.7157 0.7827,-0.3361 1.7505,-0.1946 2.4049,0.3567 0.0918,0.0772 0.1112,0.1005 0.1957,0.1852 l 8.4096,8.9491 8.4095,-8.9491 c 0,0 0.9377,-0.7502 1.8177,-0.7261 0.1193,0.0103 0.1495,0.0102 0.2675,0.0308 1.2766,0.2229 2.2025,1.6609 1.8214,2.9428 -0.0768,0.2585 -0.199,0.5032 -0.3597,0.7197 -0.0713,0.0963 -0.0933,0.1171 -0.1727,0.2066 l -9.4176,10.0217 v 7.1522 c -0.0218,1.1484 -0.9465,2.197 -2.0969,2.3063 -1.2465,0.1182 -2.4839,-0.9301 -2.5328,-2.2188 -9e-4,-0.029 -9e-4,-0.0583 -0.0015,-0.0875 z m 42.5103,2.8396 -2.439,5.1905 -0.061,0.1201 c -0.06,0.1036 -0.073,0.1309 -0.142,0.2289 -0.742,1.0534 -2.443,1.2817 -3.437,0.3911 -0.734,-0.6572 -0.958,-1.7752 -0.551,-2.7114 2.906,-6.1842 5.787,-12.3797 8.717,-18.5527 0.625,-1.2844 1.973,-2.1659 3.44,-2.18572 0.035,-2e-4 0.035,-2e-4 0.07,0 1.44,0.01944 2.823,0.88922 3.452,2.21132 l 8.705,18.5271 c 0.048,0.1098 0.063,0.1365 0.101,0.2501 0.408,1.2216 -0.405,2.7268 -1.721,3.0029 -1.009,0.2117 -2.099,-0.3496 -2.571,-1.2817 l -1.511,-3.2168 z m -65.9163,2.0931 -1.4552,3.0974 c 0,0 -0.4215,0.7455 -1.003,1.0568 -1.1025,0.5904 -2.6526,0.102 -3.1942,-1.0699 -0.2456,-0.5309 -0.2794,-1.1547 -0.0943,-1.7081 0.0381,-0.1136 0.0525,-0.1403 0.1002,-0.2501 2.906,-6.1845 5.7847,-12.382 8.7178,-18.5537 0.6257,-1.2852 1.9724,-2.1649 3.4396,-2.18472 0.035,-2e-4 0.035,-2e-4 0.0698,0 1.4435,0.01963 2.8227,0.88682 3.4525,2.21182 l 8.7049,18.5266 c 0.4914,1.1298 -0.0018,2.5607 -1.1104,3.0822 -1.014,0.4768 -2.3548,0.0882 -2.9522,-0.8743 -0.0633,-0.1019 -0.0747,-0.1298 -0.1285,-0.2366 L 71.1849,27.5788 Z M 107.192,15.0824 c -3.543,0.036 -6.6211,3.396 -6.5748,7.284 0.0424,3.5569 2.8668,7.0687 6.5748,7.0935 2.121,0.0143 4.177,-1.1669 5.377,-2.9401 2.007,-2.9655 1.566,-7.4273 -1.182,-9.8415 -1.148,-1.0078 -2.637,-1.6011 -4.195,-1.5959 z m -45.7733,9.4007 7.7178,-1.2639 -3.5619,-7.581 z m 65.5743,-1.3664 7.614,1.2469 -4.1,-8.7254 z" fill="#132123"/>
</g>
</svg>
