<?xml version="1.0" encoding="UTF-8" standalone="no"?>
<!DOCTYPE svg PUBLIC "-//W3C//DTD SVG 1.1//EN" "http://www.w3.org/Graphics/SVG/1.1/DTD/svg11.dtd">
<svg width="100%" height="100%" viewBox="0 0 51 51" version="1.1" xmlns="http://www.w3.org/2000/svg" xmlns:xlink="http://www.w3.org/1999/xlink" xml:space="preserve" xmlns:serif="http://www.serif.com/" style="fill-rule:evenodd;clip-rule:evenodd;stroke-linejoin:round;stroke-miterlimit:2;">
    <g transform="matrix(1,0,0,1,-5176,-138)">
        <g id="support" transform="matrix(0.251536,0,0,0.285081,3896.38,119.798)">
            <rect x="5089.69" y="65" width="198.778" height="175.389" style="fill:none;"/>
            <g id="Support" transform="matrix(3.98972,0,0,3.52027,-9056.58,-2906.48)">
                <g transform="matrix(1,0,0,1,0.164138,0.327184)">
                    <path d="M3588.16,866.629C3591.06,868.825 3592.85,871.802 3592.85,875.079C3592.85,878.53 3590.83,881.82 3587.3,884.138C3587.3,884.138 3587.56,886.595 3587.7,887.895C3587.72,888.059 3587.64,888.22 3587.51,888.318C3587.38,888.417 3587.2,888.438 3587.05,888.374C3585.57,887.753 3582.33,886.399 3582.33,886.399C3580.31,886.996 3578.14,887.303 3575.96,887.303C3568.58,887.303 3562.3,883.873 3560,879.099L3560.43,878.909C3562.86,879.668 3565.46,880.059 3568.08,880.059C3578.33,880.059 3586.81,874.21 3588.16,866.629Z" style="fill:rgb(99,193,0);"/>
                </g>
                <path d="M3586.11,863.704C3586.11,855.752 3577.61,849.297 3567.14,849.297C3556.67,849.297 3548.17,855.752 3548.17,863.704C3548.17,867.771 3550.43,871.649 3554.4,874.38C3554.4,874.38 3554.09,877.494 3553.94,878.972C3553.92,879.129 3553.99,879.283 3554.12,879.377C3554.25,879.47 3554.42,879.488 3554.56,879.424C3556.17,878.719 3559.98,877.044 3559.98,877.044C3562.25,877.748 3564.69,878.11 3567.14,878.11C3577.61,878.11 3586.11,871.655 3586.11,863.704ZM3560.24,862.119C3561.49,862.119 3562.5,863.132 3562.5,864.379C3562.5,865.627 3561.49,866.64 3560.24,866.64C3558.99,866.64 3557.98,865.627 3557.98,864.379C3557.98,863.132 3558.99,862.119 3560.24,862.119ZM3567.14,862.119C3568.39,862.119 3569.4,863.132 3569.4,864.379C3569.4,865.627 3568.39,866.64 3567.14,866.64C3565.89,866.64 3564.88,865.627 3564.88,864.379C3564.88,863.132 3565.89,862.119 3567.14,862.119ZM3574.04,862.119C3575.29,862.119 3576.3,863.132 3576.3,864.379C3576.3,865.627 3575.29,866.64 3574.04,866.64C3572.79,866.64 3571.78,865.627 3571.78,864.379C3571.78,863.132 3572.79,862.119 3574.04,862.119Z" style="fill:white;"/>
            </g>
        </g>
    </g>
</svg>
