<?xml version="1.0" encoding="UTF-8" standalone="no"?>
<!DOCTYPE svg PUBLIC "-//W3C//DTD SVG 1.1//EN" "http://www.w3.org/Graphics/SVG/1.1/DTD/svg11.dtd">
<svg width="100%" height="100%" viewBox="0 0 51 51" version="1.1" xmlns="http://www.w3.org/2000/svg" xmlns:xlink="http://www.w3.org/1999/xlink" xml:space="preserve" xmlns:serif="http://www.serif.com/" style="fill-rule:evenodd;clip-rule:evenodd;stroke-linejoin:round;stroke-miterlimit:2;">
    <g transform="matrix(1,0,0,1,-5416,-138)">
        <g id="urgencylists" transform="matrix(0.251536,0,0,0.285081,4136.38,119.798)">
            <rect x="5089.69" y="65" width="198.778" height="175.389" style="fill:none;"/>
            <g id="Urgency-lists" serif:id="Urgency lists" transform="matrix(5.70088,0,0,5.03008,-24132.1,-2998.53)">
                <g transform="matrix(0.982903,-0.231959,0.231959,0.982903,-48.4729,1207.1)">
                    <path d="M5152.27,609.248C5152.33,609.166 5152.33,609.047 5152.26,608.969C5152.19,608.891 5152.07,608.877 5151.98,608.936C5148.23,611.439 5136.52,619.255 5134.41,620.656C5134.35,620.699 5134.31,620.775 5134.32,620.852C5134.33,620.93 5134.38,620.998 5134.45,621.03C5135.7,621.584 5139.81,623.404 5139.81,623.404C5139.81,623.404 5133.18,632.914 5130.97,636.075C5130.91,636.16 5130.92,636.276 5131,636.349C5131.07,636.423 5131.19,636.432 5131.27,636.372C5135.06,633.688 5148.39,624.239 5150.55,622.705C5150.61,622.661 5150.65,622.588 5150.64,622.512C5150.63,622.436 5150.59,622.37 5150.52,622.337C5149.18,621.697 5144.18,619.316 5144.18,619.316C5144.18,619.316 5150.02,612.05 5152.27,609.248Z" style="fill:rgb(255,177,0);"/>
                </g>
                <g transform="matrix(1,0,0,1,1.76522,0.349525)">
                    <path d="M5137.04,632.614L5128.22,632.614C5127.4,632.614 5126.72,633.286 5126.72,634.114C5126.72,634.942 5127.4,635.614 5128.22,635.614L5137.04,635.614C5137.86,635.614 5138.54,634.942 5138.54,634.114C5138.54,633.286 5137.86,632.614 5137.04,632.614ZM5135.72,624.614L5128.22,624.614C5127.4,624.614 5126.72,625.286 5126.72,626.114C5126.72,626.942 5127.4,627.614 5128.22,627.614L5135.72,627.614C5136.55,627.614 5137.22,626.942 5137.22,626.114C5137.22,625.286 5136.55,624.614 5135.72,624.614ZM5140.12,616.614L5128.22,616.614C5127.4,616.614 5126.72,617.286 5126.72,618.114C5126.72,618.942 5127.4,619.614 5128.22,619.614L5140.12,619.614C5140.95,619.614 5141.62,618.942 5141.62,618.114C5141.62,617.286 5140.95,616.614 5140.12,616.614Z" style="fill:white;"/>
                </g>
            </g>
        </g>
    </g>
</svg>
